<svg width="133" height="221" viewBox="0 0 133 221" fill="none" xmlns="http://www.w3.org/2000/svg">
<path d="M0.5 220.5V0H67V171.5L0.5 220.5Z" fill="#3C9AE4"/>
<path d="M132.5 220.5V0H66V171.5L132.5 220.5Z" fill="#3C9AE4"/>
<path d="M77.28 102.28C77.92 102.92 78.56 103.8 79.2 104.92C79.8133 106.013 80.3333 107.28 80.76 108.72C81.1867 110.16 81.4 111.693 81.4 113.32C81.4 115.347 81.0667 117.24 80.4 119C79.7067 120.76 78.7333 122.307 77.48 123.64C76.2267 124.947 74.72 125.973 72.96 126.72C71.1733 127.44 69.1867 127.8 67 127.8C64.9467 127.8 63.0533 127.413 61.32 126.64C59.5867 125.867 58.08 124.8 56.8 123.44C55.52 122.053 54.5333 120.48 53.84 118.72C53.12 116.96 52.76 115.093 52.76 113.12C52.76 111.467 53 109.92 53.48 108.48C53.9333 107.013 54.52 105.72 55.24 104.6C55.96 103.453 56.72 102.547 57.52 101.88L60.8 104.64C59.7067 105.813 58.8133 107.12 58.12 108.56C57.4 109.973 57.04 111.547 57.04 113.28C57.04 114.987 57.44 116.613 58.24 118.16C59.04 119.707 60.1867 120.973 61.68 121.96C63.1733 122.92 64.9467 123.4 67 123.4C69.24 123.4 71.1067 122.907 72.6 121.92C74.0933 120.907 75.2267 119.6 76 118C76.7467 116.373 77.12 114.627 77.12 112.76C77.12 110.867 76.76 109.227 76.04 107.84C75.2933 106.453 74.52 105.307 73.72 104.4L77.28 102.28ZM53 80.6078C53 77.5678 53.6 75.2745 54.8 73.7278C56 72.1811 57.7467 71.4078 60.04 71.4078C61.2933 71.4078 62.4267 71.7411 63.44 72.4078C64.4267 73.0745 65.1867 74.0478 65.72 75.3278C66.04 74.3678 66.4933 73.4878 67.08 72.6878C67.6667 71.8611 68.4267 71.1945 69.36 70.6878C70.2933 70.1811 71.4267 69.9278 72.76 69.9278C74.3867 69.9278 75.7333 70.2345 76.8 70.8478C77.8667 71.4345 78.7067 72.2211 79.32 73.2078C79.9333 74.1945 80.3733 75.2745 80.64 76.4478C80.88 77.6211 81 78.7945 81 79.9678L81 93.7278L53 93.7278L53 80.6078ZM57.16 80.9278L57.16 89.4078L64.52 89.4078L64.52 80.4478C64.4933 79.2211 64.16 78.1411 63.52 77.2078C62.88 76.2745 61.9733 75.8078 60.8 75.8078C59.4933 75.8078 58.56 76.3011 58 77.2878C57.44 78.2745 57.16 79.4878 57.16 80.9278ZM68.68 80.2478L68.68 89.4078L76.84 89.4078L76.84 80.0478C76.84 78.3678 76.5067 76.9945 75.84 75.9278C75.1467 74.8611 74.0933 74.3278 72.68 74.3278C71.6667 74.3278 70.8667 74.6345 70.28 75.2478C69.6933 75.8611 69.28 76.6211 69.04 77.5278C68.8 78.4345 68.68 79.3411 68.68 80.2478ZM67 33.5422C69.0267 33.5422 70.92 33.9155 72.68 34.6622C74.4133 35.3822 75.9333 36.4222 77.24 37.7822C78.5467 39.1155 79.5733 40.7022 80.32 42.5422C81.04 44.3555 81.4 46.3555 81.4 48.5422C81.4 50.7289 81.04 52.7422 80.32 54.5822C79.5733 56.4222 78.5467 58.0089 77.24 59.3422C75.9333 60.6755 74.4133 61.7155 72.68 62.4622C70.92 63.1822 69.0267 63.5422 67 63.5422C64.9733 63.5422 63.0933 63.1822 61.36 62.4622C59.6 61.7155 58.0667 60.6755 56.76 59.3422C55.4533 58.0089 54.44 56.4222 53.72 54.5822C52.9733 52.7422 52.6 50.7289 52.6 48.5422C52.6 46.3555 52.9733 44.3555 53.72 42.5422C54.44 40.7022 55.4533 39.1155 56.76 37.7822C58.0667 36.4222 59.6 35.3822 61.36 34.6622C63.0933 33.9155 64.9733 33.5422 67 33.5422ZM67 37.9422C65.0533 37.9422 63.32 38.3955 61.8 39.3022C60.2533 40.2089 59.04 41.4622 58.16 43.0622C57.2533 44.6622 56.8 46.4889 56.8 48.5422C56.8 50.6489 57.2533 52.5022 58.16 54.1022C59.04 55.6755 60.2533 56.9155 61.8 57.8222C63.32 58.7022 65.0533 59.1422 67 59.1422C68.9467 59.1422 70.6933 58.7022 72.24 57.8222C73.76 56.9155 74.9733 55.6755 75.88 54.1022C76.76 52.5022 77.2 50.6489 77.2 48.5422C77.2 46.4889 76.76 44.6622 75.88 43.0622C74.9733 41.4622 73.7467 40.2089 72.2 39.3022C70.6533 38.3955 68.92 37.9422 67 37.9422Z" fill="white"/>
</svg>
