<svg width="602" height="186" viewBox="0 0 602 186" fill="none" xmlns="http://www.w3.org/2000/svg">
<path d="M76.976 129.024C76.464 129.536 75.76 130.048 74.864 130.56C73.9893 131.051 72.976 131.467 71.824 131.808C70.672 132.149 69.4453 132.32 68.144 132.32C66.5227 132.32 65.008 132.053 63.6 131.52C62.192 130.965 60.9547 130.187 59.888 129.184C58.8427 128.181 58.0213 126.976 57.424 125.568C56.848 124.139 56.56 122.549 56.56 120.8C56.56 119.157 56.8693 117.643 57.488 116.256C58.1067 114.869 58.96 113.664 60.048 112.64C61.1573 111.616 62.416 110.827 63.824 110.272C65.232 109.696 66.7253 109.408 68.304 109.408C69.6267 109.408 70.864 109.6 72.016 109.984C73.1893 110.347 74.224 110.816 75.12 111.392C76.0373 111.968 76.7627 112.576 77.296 113.216L75.088 115.84C74.1493 114.965 73.104 114.251 71.952 113.696C70.8213 113.12 69.5627 112.832 68.176 112.832C66.8107 112.832 65.5093 113.152 64.272 113.792C63.0347 114.432 62.0213 115.349 61.232 116.544C60.464 117.739 60.08 119.157 60.08 120.8C60.08 122.592 60.4747 124.085 61.264 125.28C62.0747 126.475 63.12 127.381 64.4 128C65.7013 128.597 67.0987 128.896 68.592 128.896C70.1067 128.896 71.4187 128.608 72.528 128.032C73.6373 127.435 74.5547 126.816 75.28 126.176L76.976 129.024ZM100.33 132L98.0258 126.56H87.1458L84.8098 132H81.2578L90.8258 109.6H94.5698L104.074 132H100.33ZM90.8578 117.856L88.5538 123.232H96.6178L94.2498 117.728C93.9724 117.024 93.6951 116.309 93.4178 115.584C93.1404 114.837 92.8631 114.069 92.5858 113.28C92.2871 114.091 91.9991 114.88 91.7218 115.648C91.4444 116.416 91.1564 117.152 90.8578 117.856ZM128.837 109.568V122.56C128.837 124.416 128.41 126.069 127.557 127.52C126.725 128.971 125.562 130.112 124.069 130.944C122.576 131.776 120.858 132.192 118.917 132.192C116.954 132.192 115.226 131.776 113.733 130.944C112.261 130.112 111.098 128.971 110.245 127.52C109.413 126.069 108.997 124.416 108.997 122.56V109.568H112.453V122.336C112.453 123.595 112.741 124.715 113.317 125.696C113.914 126.677 114.704 127.456 115.685 128.032C116.666 128.587 117.744 128.864 118.917 128.864C120.133 128.864 121.242 128.587 122.245 128.032C123.248 127.456 124.048 126.677 124.645 125.696C125.242 124.715 125.541 123.595 125.541 122.336V109.568H128.837ZM137.302 125.184C138.326 126.464 139.404 127.456 140.534 128.16C141.665 128.864 143.084 129.216 144.79 129.216C145.665 129.216 146.508 129.099 147.318 128.864C148.129 128.608 148.79 128.245 149.302 127.776C149.814 127.285 150.07 126.677 150.07 125.952C150.07 124.885 149.537 124.107 148.47 123.616C147.404 123.104 145.91 122.699 143.99 122.4C141.58 121.995 139.66 121.28 138.23 120.256C136.822 119.211 136.118 117.685 136.118 115.68C136.118 114.357 136.513 113.216 137.302 112.256C138.092 111.296 139.137 110.56 140.438 110.048C141.74 109.536 143.169 109.28 144.726 109.28C146.689 109.28 148.385 109.621 149.814 110.304C151.265 110.987 152.396 111.957 153.206 113.216L150.838 115.68C150.156 114.699 149.292 113.909 148.246 113.312C147.222 112.693 146.017 112.384 144.63 112.384C143.244 112.384 142.07 112.661 141.11 113.216C140.172 113.749 139.702 114.507 139.702 115.488C139.702 116.619 140.204 117.429 141.206 117.92C142.209 118.411 143.542 118.795 145.206 119.072C146.294 119.243 147.34 119.477 148.342 119.776C149.345 120.075 150.241 120.469 151.03 120.96C151.841 121.429 152.481 122.016 152.95 122.72C153.42 123.403 153.654 124.245 153.654 125.248C153.654 126.677 153.281 127.925 152.534 128.992C151.809 130.037 150.764 130.859 149.398 131.456C148.033 132.032 146.422 132.32 144.566 132.32C142.604 132.32 140.822 131.979 139.222 131.296C137.622 130.613 136.214 129.504 134.998 127.968L137.302 125.184ZM177.08 132L174.776 126.56H163.896L161.56 132H158.008L167.576 109.6H171.32L180.824 132H177.08ZM167.608 117.856L165.304 123.232H173.368L171 117.728C170.722 117.024 170.445 116.309 170.168 115.584C169.89 114.837 169.613 114.069 169.336 113.28C169.037 114.091 168.749 114.88 168.472 115.648C168.194 116.416 167.906 117.152 167.608 117.856ZM208.814 109.6C211.246 109.6 213.08 110.08 214.318 111.04C215.555 112 216.174 113.397 216.174 115.232C216.174 116.235 215.907 117.141 215.374 117.952C214.84 118.741 214.062 119.349 213.038 119.776C213.806 120.032 214.51 120.395 215.15 120.864C215.811 121.333 216.344 121.941 216.75 122.688C217.155 123.435 217.358 124.341 217.358 125.408C217.358 126.709 217.112 127.787 216.622 128.64C216.152 129.493 215.523 130.165 214.734 130.656C213.944 131.147 213.08 131.499 212.142 131.712C211.203 131.904 210.264 132 209.326 132H198.318V109.6H208.814ZM208.558 112.928H201.774V118.816H208.942C209.923 118.795 210.787 118.528 211.534 118.016C212.28 117.504 212.654 116.779 212.654 115.84C212.654 114.795 212.259 114.048 211.47 113.6C210.68 113.152 209.71 112.928 208.558 112.928ZM209.102 122.144H201.774V128.672H209.262C210.606 128.672 211.704 128.405 212.558 127.872C213.411 127.317 213.838 126.475 213.838 125.344C213.838 124.533 213.592 123.893 213.102 123.424C212.611 122.955 212.003 122.624 211.278 122.432C210.552 122.24 209.827 122.144 209.102 122.144ZM240.642 132L238.338 126.56H227.458L225.122 132H221.57L231.138 109.6H234.882L244.386 132H240.642ZM231.17 117.856L228.866 123.232H236.93L234.562 117.728C234.285 117.024 234.008 116.309 233.73 115.584C233.453 114.837 233.176 114.069 232.898 113.28C232.6 114.091 232.312 114.88 232.034 115.648C231.757 116.416 231.469 117.152 231.17 117.856ZM232.514 107.936L231.426 106.304L236.002 102.304L238.082 104.928L232.514 107.936ZM250.959 125.184C251.983 126.464 253.06 127.456 254.191 128.16C255.321 128.864 256.74 129.216 258.447 129.216C259.321 129.216 260.164 129.099 260.975 128.864C261.785 128.608 262.447 128.245 262.958 127.776C263.471 127.285 263.727 126.677 263.727 125.952C263.727 124.885 263.193 124.107 262.127 123.616C261.06 123.104 259.567 122.699 257.647 122.4C255.236 121.995 253.316 121.28 251.887 120.256C250.479 119.211 249.775 117.685 249.775 115.68C249.775 114.357 250.169 113.216 250.959 112.256C251.748 111.296 252.793 110.56 254.095 110.048C255.396 109.536 256.825 109.28 258.383 109.28C260.345 109.28 262.041 109.621 263.471 110.304C264.921 110.987 266.052 111.957 266.863 113.216L264.495 115.68C263.812 114.699 262.948 113.909 261.903 113.312C260.879 112.693 259.673 112.384 258.287 112.384C256.9 112.384 255.727 112.661 254.767 113.216C253.828 113.749 253.359 114.507 253.359 115.488C253.359 116.619 253.86 117.429 254.863 117.92C255.865 118.411 257.199 118.795 258.863 119.072C259.951 119.243 260.996 119.477 261.999 119.776C263.001 120.075 263.897 120.469 264.687 120.96C265.497 121.429 266.137 122.016 266.607 122.72C267.076 123.403 267.311 124.245 267.311 125.248C267.311 126.677 266.937 127.925 266.191 128.992C265.465 130.037 264.42 130.859 263.055 131.456C261.689 132.032 260.079 132.32 258.223 132.32C256.26 132.32 254.479 131.979 252.879 131.296C251.279 130.613 249.871 129.504 248.655 127.968L250.959 125.184ZM286.288 132H273.808V128.704H278.32V112.896H273.808V109.6H286.288V112.896H281.776V128.704H286.288V132ZM312.601 129.024C312.089 129.536 311.385 130.048 310.489 130.56C309.614 131.051 308.601 131.467 307.449 131.808C306.297 132.149 305.07 132.32 303.769 132.32C302.148 132.32 300.633 132.053 299.225 131.52C297.817 130.965 296.58 130.187 295.513 129.184C294.468 128.181 293.646 126.976 293.049 125.568C292.473 124.139 292.185 122.549 292.185 120.8C292.185 119.157 292.494 117.643 293.113 116.256C293.732 114.869 294.585 113.664 295.673 112.64C296.782 111.616 298.041 110.827 299.449 110.272C300.857 109.696 302.35 109.408 303.929 109.408C305.252 109.408 306.489 109.6 307.641 109.984C308.814 110.347 309.849 110.816 310.745 111.392C311.662 111.968 312.388 112.576 312.921 113.216L310.713 115.84C309.774 114.965 308.729 114.251 307.577 113.696C306.446 113.12 305.188 112.832 303.801 112.832C302.436 112.832 301.134 113.152 299.897 113.792C298.66 114.432 297.646 115.349 296.857 116.544C296.089 117.739 295.705 119.157 295.705 120.8C295.705 122.592 296.1 124.085 296.889 125.28C297.7 126.475 298.745 127.381 300.025 128C301.326 128.597 302.724 128.896 304.217 128.896C305.732 128.896 307.044 128.608 308.153 128.032C309.262 127.435 310.18 126.816 310.905 126.176L312.601 129.024ZM335.955 132L333.651 126.56H322.771L320.435 132H316.883L326.451 109.6H330.195L339.699 132H335.955ZM326.483 117.856L324.179 123.232H332.243L329.875 117.728C329.597 117.024 329.32 116.309 329.043 115.584C328.765 114.837 328.488 114.069 328.211 113.28C327.912 114.091 327.624 114.88 327.347 115.648C327.069 116.416 326.781 117.152 326.483 117.856ZM366.985 109.6C368.841 109.6 370.473 109.899 371.881 110.496C373.289 111.072 374.473 111.883 375.433 112.928C376.393 113.952 377.107 115.147 377.577 116.512C378.067 117.856 378.313 119.285 378.313 120.8C378.313 122.848 377.886 124.725 377.033 126.432C376.179 128.117 374.91 129.472 373.225 130.496C371.539 131.499 369.459 132 366.985 132H357.193V109.6H366.985ZM366.825 128.672C368.681 128.672 370.185 128.32 371.337 127.616C372.51 126.891 373.363 125.941 373.897 124.768C374.451 123.573 374.729 122.251 374.729 120.8C374.729 119.392 374.451 118.091 373.897 116.896C373.363 115.701 372.51 114.741 371.337 114.016C370.163 113.291 368.659 112.928 366.825 112.928H360.649V128.672H366.825ZM407.435 120.8C407.435 122.421 407.136 123.936 406.539 125.344C405.963 126.731 405.131 127.947 404.043 128.992C402.976 130.037 401.707 130.859 400.235 131.456C398.784 132.032 397.184 132.32 395.435 132.32C393.686 132.32 392.075 132.032 390.603 131.456C389.131 130.859 387.862 130.037 386.795 128.992C385.728 127.947 384.896 126.731 384.299 125.344C383.723 123.936 383.435 122.421 383.435 120.8C383.435 119.179 383.723 117.675 384.299 116.288C384.896 114.88 385.728 113.653 386.795 112.608C387.862 111.563 389.131 110.752 390.603 110.176C392.075 109.579 393.686 109.28 395.435 109.28C397.184 109.28 398.784 109.579 400.235 110.176C401.707 110.752 402.976 111.563 404.043 112.608C405.131 113.653 405.963 114.88 406.539 116.288C407.136 117.675 407.435 119.179 407.435 120.8ZM403.915 120.8C403.915 119.243 403.552 117.856 402.827 116.64C402.102 115.403 401.099 114.432 399.819 113.728C398.539 113.003 397.078 112.64 395.435 112.64C393.75 112.64 392.267 113.003 390.987 113.728C389.728 114.432 388.736 115.403 388.011 116.64C387.307 117.856 386.955 119.243 386.955 120.8C386.955 122.357 387.307 123.755 388.011 124.992C388.736 126.208 389.728 127.179 390.987 127.904C392.267 128.608 393.75 128.96 395.435 128.96C397.078 128.96 398.539 128.608 399.819 127.904C401.099 127.179 402.102 126.197 402.827 124.96C403.552 123.723 403.915 122.336 403.915 120.8ZM448.154 120.8C448.154 122.421 447.855 123.936 447.258 125.344C446.682 126.731 445.85 127.947 444.762 128.992C443.695 130.037 442.426 130.859 440.954 131.456C439.503 132.032 437.903 132.32 436.154 132.32C434.404 132.32 432.794 132.032 431.322 131.456C429.85 130.859 428.58 130.037 427.514 128.992C426.447 127.947 425.615 126.731 425.018 125.344C424.442 123.936 424.154 122.421 424.154 120.8C424.154 119.179 424.442 117.675 425.018 116.288C425.615 114.88 426.447 113.653 427.514 112.608C428.58 111.563 429.85 110.752 431.322 110.176C432.794 109.579 434.404 109.28 436.154 109.28C437.903 109.28 439.503 109.579 440.954 110.176C442.426 110.752 443.695 111.563 444.762 112.608C445.85 113.653 446.682 114.88 447.258 116.288C447.855 117.675 448.154 119.179 448.154 120.8ZM444.634 120.8C444.634 119.243 444.271 117.856 443.546 116.64C442.82 115.403 441.818 114.432 440.538 113.728C439.258 113.003 437.796 112.64 436.154 112.64C434.468 112.64 432.986 113.003 431.706 113.728C430.447 114.432 429.455 115.403 428.73 116.64C428.026 117.856 427.674 119.243 427.674 120.8C427.674 122.357 428.026 123.755 428.73 124.992C429.455 126.208 430.447 127.179 431.706 127.904C432.986 128.608 434.468 128.96 436.154 128.96C437.796 128.96 439.258 128.608 440.538 127.904C441.818 127.179 442.82 126.197 443.546 124.96C444.271 123.723 444.634 122.336 444.634 120.8ZM435.546 107.936L434.458 106.304L439.034 102.304L441.114 104.928L435.546 107.936ZM465.439 109.6C467.871 109.6 469.705 110.08 470.943 111.04C472.18 112 472.799 113.397 472.799 115.232C472.799 116.235 472.532 117.141 471.999 117.952C471.465 118.741 470.687 119.349 469.663 119.776C470.431 120.032 471.135 120.395 471.775 120.864C472.436 121.333 472.969 121.941 473.375 122.688C473.78 123.435 473.983 124.341 473.983 125.408C473.983 126.709 473.737 127.787 473.247 128.64C472.777 129.493 472.148 130.165 471.359 130.656C470.569 131.147 469.705 131.499 468.767 131.712C467.828 131.904 466.889 132 465.951 132H454.943V109.6H465.439ZM465.183 112.928H458.399V118.816H465.567C466.548 118.795 467.412 118.528 468.159 118.016C468.905 117.504 469.279 116.779 469.279 115.84C469.279 114.795 468.884 114.048 468.095 113.6C467.305 113.152 466.335 112.928 465.183 112.928ZM465.727 122.144H458.399V128.672H465.887C467.231 128.672 468.329 128.405 469.183 127.872C470.036 127.317 470.463 126.475 470.463 125.344C470.463 124.533 470.217 123.893 469.727 123.424C469.236 122.955 468.628 122.624 467.903 122.432C467.177 122.24 466.452 122.144 465.727 122.144ZM492.819 132H480.339V128.704H484.851V112.896H480.339V109.6H492.819V112.896H488.307V128.704H492.819V132ZM505.745 132V112.928H498.577V109.6H516.561V112.928H509.201V132H505.745ZM544.091 120.8C544.091 122.421 543.793 123.936 543.195 125.344C542.619 126.731 541.787 127.947 540.699 128.992C539.633 130.037 538.363 130.859 536.891 131.456C535.441 132.032 533.841 132.32 532.091 132.32C530.342 132.32 528.731 132.032 527.259 131.456C525.787 130.859 524.518 130.037 523.451 128.992C522.385 127.947 521.553 126.731 520.955 125.344C520.379 123.936 520.091 122.421 520.091 120.8C520.091 119.179 520.379 117.675 520.955 116.288C521.553 114.88 522.385 113.653 523.451 112.608C524.518 111.563 525.787 110.752 527.259 110.176C528.731 109.579 530.342 109.28 532.091 109.28C533.841 109.28 535.441 109.579 536.891 110.176C538.363 110.752 539.633 111.563 540.699 112.608C541.787 113.653 542.619 114.88 543.195 116.288C543.793 117.675 544.091 119.179 544.091 120.8ZM540.571 120.8C540.571 119.243 540.209 117.856 539.483 116.64C538.758 115.403 537.755 114.432 536.475 113.728C535.195 113.003 533.734 112.64 532.091 112.64C530.406 112.64 528.923 113.003 527.643 113.728C526.385 114.432 525.393 115.403 524.667 116.64C523.963 117.856 523.611 119.243 523.611 120.8C523.611 122.357 523.963 123.755 524.667 124.992C525.393 126.208 526.385 127.179 527.643 127.904C528.923 128.608 530.406 128.96 532.091 128.96C533.734 128.96 535.195 128.608 536.475 127.904C537.755 127.179 538.758 126.197 539.483 124.96C540.209 123.723 540.571 122.336 540.571 120.8Z" fill="#3C9AE4"/>
<path d="M214.699 174.562C214.371 176.328 213.57 177.727 212.297 178.758C211.031 179.789 209.512 180.281 207.738 180.234C206.684 180.211 205.762 179.953 204.973 179.461C204.184 178.961 203.57 178.246 203.133 177.316C202.695 176.379 202.453 175.344 202.406 174.211C202.375 173.57 202.402 172.945 202.488 172.336L202.688 170.93C203.055 168.367 203.953 166.348 205.383 164.871C206.82 163.387 208.566 162.664 210.621 162.703C212.223 162.734 213.492 163.254 214.43 164.262C215.367 165.262 215.863 166.652 215.918 168.434H213.727C213.625 166.043 212.688 164.754 210.914 164.566L210.527 164.543C209.051 164.504 207.816 165.055 206.824 166.195C205.84 167.328 205.203 168.879 204.914 170.848L204.656 172.617L204.586 173.648C204.539 175.086 204.793 176.23 205.348 177.082C205.91 177.926 206.742 178.363 207.844 178.395C209.031 178.434 210.012 178.148 210.785 177.539C211.566 176.93 212.16 175.949 212.566 174.598L214.699 174.562ZM223.688 167.086C224.75 167.102 225.66 167.391 226.418 167.953C227.176 168.516 227.734 169.293 228.094 170.285C228.461 171.27 228.586 172.348 228.469 173.52L228.445 173.777C228.297 175.012 227.93 176.129 227.344 177.129C226.758 178.121 226 178.895 225.07 179.449C224.141 180.004 223.121 180.266 222.012 180.234C220.957 180.219 220.047 179.93 219.281 179.367C218.523 178.805 217.969 178.039 217.617 177.07C217.266 176.102 217.141 175.035 217.242 173.871C217.359 172.559 217.715 171.379 218.309 170.332C218.902 169.285 219.664 168.477 220.594 167.906C221.531 167.328 222.562 167.055 223.688 167.086ZM219.375 173.883C219.32 174.375 219.32 174.887 219.375 175.418C219.453 176.34 219.727 177.074 220.195 177.621C220.672 178.168 221.305 178.453 222.094 178.477C222.797 178.5 223.445 178.328 224.039 177.961C224.633 177.586 225.133 177.023 225.539 176.273C225.945 175.523 226.207 174.691 226.324 173.777C226.387 173.059 226.398 172.453 226.359 171.961C226.266 171.016 225.98 170.27 225.504 169.723C225.027 169.176 224.395 168.887 223.605 168.855C222.512 168.832 221.582 169.262 220.816 170.145C220.051 171.027 219.578 172.184 219.398 173.613L219.375 173.883ZM230.66 173.637C230.816 172.348 231.172 171.184 231.727 170.145C232.281 169.105 232.965 168.328 233.777 167.812C234.59 167.297 235.484 167.051 236.461 167.074C237.875 167.105 238.961 167.621 239.719 168.621L240.938 162H243.059L239.941 180H238.008L238.23 178.641C237.23 179.734 235.996 180.266 234.527 180.234C233.355 180.203 232.422 179.746 231.727 178.863C231.031 177.973 230.656 176.781 230.602 175.289C230.578 174.828 230.598 174.277 230.66 173.637ZM232.699 174.855C232.676 175.973 232.875 176.84 233.297 177.457C233.719 178.074 234.336 178.391 235.148 178.406C236.375 178.461 237.465 177.844 238.418 176.555L239.426 170.695C238.957 169.539 238.105 168.945 236.871 168.914C236.035 168.891 235.297 169.145 234.656 169.676C234.023 170.199 233.539 170.938 233.203 171.891C232.875 172.836 232.707 173.824 232.699 174.855ZM245.59 180H243.48L245.684 167.32H247.793L245.59 180ZM247.336 162.691C247.695 162.676 247.992 162.785 248.227 163.02C248.469 163.246 248.59 163.547 248.59 163.922C248.582 164.289 248.461 164.59 248.227 164.824C248 165.059 247.703 165.184 247.336 165.199C246.969 165.215 246.668 165.109 246.434 164.883C246.199 164.656 246.086 164.359 246.094 163.992C246.102 163.625 246.219 163.32 246.445 163.078C246.672 162.836 246.969 162.707 247.336 162.691ZM249.762 180L251.672 168.996H249.727L250.02 167.32L251.965 167.309L252.129 166.137C252.34 164.707 252.914 163.602 253.852 162.82C254.75 162.078 255.883 161.715 257.25 161.73C257.805 161.746 258.34 161.824 258.855 161.965C259.379 162.098 259.914 162.258 260.461 162.445L259.945 164.297C259.062 163.898 258.188 163.691 257.32 163.676C255.531 163.645 254.504 164.52 254.238 166.301L254.086 167.32H256.605L256.312 168.996H253.805L251.895 180H249.762ZM258.551 180H256.418L258.621 167.32H260.754L258.551 180ZM267.422 178.477C268.18 178.492 268.863 178.273 269.473 177.82C270.082 177.359 270.48 176.758 270.668 176.016L272.672 176.004C272.555 176.801 272.234 177.527 271.711 178.184C271.195 178.84 270.543 179.352 269.754 179.719C268.965 180.086 268.156 180.258 267.328 180.234C266.273 180.219 265.379 179.945 264.645 179.414C263.918 178.875 263.383 178.129 263.039 177.176C262.695 176.215 262.578 175.137 262.688 173.941L262.746 173.355C262.895 172.137 263.25 171.047 263.812 170.086C264.375 169.125 265.109 168.379 266.016 167.848C266.922 167.309 267.922 167.055 269.016 167.086C270.344 167.117 271.406 167.562 272.203 168.422C273 169.281 273.398 170.371 273.398 171.691L271.418 171.68C271.402 170.852 271.172 170.184 270.727 169.676C270.281 169.16 269.68 168.887 268.922 168.855C267.82 168.832 266.902 169.242 266.168 170.086C265.441 170.93 264.988 172.109 264.809 173.625L264.773 173.93C264.727 174.43 264.719 174.945 264.75 175.477C264.805 176.391 265.062 177.113 265.523 177.645C265.984 178.176 266.617 178.453 267.422 178.477ZM282.129 180C282.074 179.773 282.047 179.551 282.047 179.332L282.082 178.664C280.918 179.742 279.684 180.266 278.379 180.234C277.262 180.219 276.352 179.867 275.648 179.18C274.953 178.484 274.637 177.617 274.699 176.578C274.777 175.234 275.363 174.188 276.457 173.438C277.559 172.68 279.004 172.301 280.793 172.301L283.008 172.312L283.148 171.305C283.227 170.547 283.078 169.949 282.703 169.512C282.336 169.066 281.781 168.836 281.039 168.82C280.312 168.805 279.668 168.984 279.105 169.359C278.551 169.727 278.211 170.215 278.086 170.824L275.953 170.836C276.023 170.094 276.312 169.438 276.82 168.867C277.328 168.289 277.98 167.844 278.777 167.531C279.574 167.211 280.398 167.059 281.25 167.074C282.57 167.105 283.598 167.508 284.332 168.281C285.066 169.047 285.375 170.066 285.258 171.34L284.227 177.621L284.168 178.523C284.152 178.953 284.199 179.379 284.309 179.801L284.285 180H282.129ZM278.801 178.359C279.48 178.375 280.121 178.215 280.723 177.879C281.332 177.535 281.855 177.062 282.293 176.461L282.75 173.848L281.145 173.836C279.809 173.836 278.785 174.047 278.074 174.469C277.363 174.891 276.961 175.488 276.867 176.262C276.797 176.855 276.934 177.352 277.277 177.75C277.629 178.141 278.137 178.344 278.801 178.359ZM295.055 169.254L294.059 169.148C292.699 169.148 291.629 169.762 290.848 170.988L289.289 180H287.168L289.371 167.32L291.422 167.309L291.105 168.785C292.004 167.605 293.062 167.031 294.281 167.062C294.539 167.062 294.875 167.121 295.289 167.238L295.055 169.254ZM306.527 180.234C304.949 180.203 303.715 179.621 302.824 178.488C301.934 177.355 301.559 175.906 301.699 174.141L301.758 173.637C301.891 172.379 302.262 171.23 302.871 170.191C303.488 169.152 304.238 168.371 305.121 167.848C306.004 167.316 306.957 167.062 307.98 167.086C309.285 167.117 310.309 167.551 311.051 168.387C311.793 169.223 312.199 170.355 312.27 171.785C312.293 172.293 312.277 172.801 312.223 173.309L312.094 174.281H303.809C303.668 175.43 303.855 176.406 304.371 177.211C304.895 178.016 305.672 178.434 306.703 178.465C307.953 178.496 309.109 177.934 310.172 176.777L311.391 177.809C310.859 178.574 310.172 179.176 309.328 179.613C308.492 180.043 307.559 180.25 306.527 180.234ZM307.875 168.855C307 168.832 306.234 169.129 305.578 169.746C304.93 170.363 304.414 171.281 304.031 172.5L310.195 172.512L310.242 172.324C310.367 171.34 310.207 170.523 309.762 169.875C309.324 169.219 308.695 168.879 307.875 168.855ZM309.785 162H312.492L308.906 165.445H307.043L309.785 162ZM330.855 173.719C330.699 175.008 330.352 176.168 329.812 177.199C329.273 178.23 328.605 179.004 327.809 179.52C327.012 180.027 326.129 180.27 325.16 180.246C323.691 180.215 322.566 179.719 321.785 178.758L320.648 184.875H318.527L321.574 167.32L323.496 167.309L323.262 168.727C324.309 167.602 325.562 167.055 327.023 167.086C328.242 167.117 329.191 167.566 329.871 168.434C330.551 169.301 330.91 170.496 330.949 172.02C330.957 172.52 330.938 173.004 330.891 173.473L330.855 173.719ZM328.77 173.473L328.828 172.488C328.828 171.348 328.609 170.477 328.172 169.875C327.742 169.266 327.117 168.945 326.297 168.914C325.07 168.883 324.012 169.465 323.121 170.66L322.055 176.742C322.531 177.867 323.387 178.445 324.621 178.477C325.676 178.5 326.57 178.09 327.305 177.246C328.047 176.395 328.535 175.137 328.77 173.473ZM340.453 169.254L339.457 169.148C338.098 169.148 337.027 169.762 336.246 170.988L334.688 180H332.566L334.77 167.32L336.82 167.309L336.504 168.785C337.402 167.605 338.461 167.031 339.68 167.062C339.938 167.062 340.273 167.121 340.688 167.238L340.453 169.254ZM345.809 180.234C344.23 180.203 342.996 179.621 342.105 178.488C341.215 177.355 340.84 175.906 340.98 174.141L341.039 173.637C341.172 172.379 341.543 171.23 342.152 170.191C342.77 169.152 343.52 168.371 344.402 167.848C345.285 167.316 346.238 167.062 347.262 167.086C348.566 167.117 349.59 167.551 350.332 168.387C351.074 169.223 351.48 170.355 351.551 171.785C351.574 172.293 351.559 172.801 351.504 173.309L351.375 174.281H343.09C342.949 175.43 343.137 176.406 343.652 177.211C344.176 178.016 344.953 178.434 345.984 178.465C347.234 178.496 348.391 177.934 349.453 176.777L350.672 177.809C350.141 178.574 349.453 179.176 348.609 179.613C347.773 180.043 346.84 180.25 345.809 180.234ZM347.156 168.855C346.281 168.832 345.516 169.129 344.859 169.746C344.211 170.363 343.695 171.281 343.312 172.5L349.477 172.512L349.523 172.324C349.648 171.34 349.488 170.523 349.043 169.875C348.605 169.219 347.977 168.879 347.156 168.855ZM358.125 178.477C358.883 178.492 359.566 178.273 360.176 177.82C360.785 177.359 361.184 176.758 361.371 176.016L363.375 176.004C363.258 176.801 362.938 177.527 362.414 178.184C361.898 178.84 361.246 179.352 360.457 179.719C359.668 180.086 358.859 180.258 358.031 180.234C356.977 180.219 356.082 179.945 355.348 179.414C354.621 178.875 354.086 178.129 353.742 177.176C353.398 176.215 353.281 175.137 353.391 173.941L353.449 173.355C353.598 172.137 353.953 171.047 354.516 170.086C355.078 169.125 355.812 168.379 356.719 167.848C357.625 167.309 358.625 167.055 359.719 167.086C361.047 167.117 362.109 167.562 362.906 168.422C363.703 169.281 364.102 170.371 364.102 171.691L362.121 171.68C362.105 170.852 361.875 170.184 361.43 169.676C360.984 169.16 360.383 168.887 359.625 168.855C358.523 168.832 357.605 169.242 356.871 170.086C356.145 170.93 355.691 172.109 355.512 173.625L355.477 173.93C355.43 174.43 355.422 174.945 355.453 175.477C355.508 176.391 355.766 177.113 356.227 177.645C356.688 178.176 357.32 178.453 358.125 178.477ZM367.371 180H365.262L367.465 167.32H369.574L367.371 180ZM369.117 162.691C369.477 162.676 369.773 162.785 370.008 163.02C370.25 163.246 370.371 163.547 370.371 163.922C370.363 164.289 370.242 164.59 370.008 164.824C369.781 165.059 369.484 165.184 369.117 165.199C368.75 165.215 368.449 165.109 368.215 164.883C367.98 164.656 367.867 164.359 367.875 163.992C367.883 163.625 368 163.32 368.227 163.078C368.453 162.836 368.75 162.707 369.117 162.691ZM378.691 176.566C378.809 175.691 378.328 175.074 377.25 174.715L375.047 174.07C373.188 173.43 372.289 172.367 372.352 170.883C372.406 169.766 372.914 168.852 373.875 168.141C374.844 167.422 375.98 167.07 377.285 167.086C378.566 167.102 379.605 167.477 380.402 168.211C381.207 168.938 381.594 169.887 381.562 171.059L379.453 171.047C379.469 170.414 379.27 169.898 378.855 169.5C378.441 169.102 377.891 168.895 377.203 168.879C376.469 168.863 375.836 169.043 375.305 169.418C374.812 169.77 374.527 170.23 374.449 170.801C374.348 171.535 374.797 172.07 375.797 172.406L376.863 172.699C378.316 173.074 379.348 173.562 379.957 174.164C380.566 174.766 380.848 175.512 380.801 176.402C380.754 177.191 380.496 177.879 380.027 178.465C379.559 179.051 378.934 179.5 378.152 179.812C377.371 180.117 376.539 180.258 375.656 180.234C374.312 180.219 373.203 179.828 372.328 179.062C371.453 178.289 371.031 177.297 371.062 176.086L373.184 176.098C373.184 176.809 373.41 177.379 373.863 177.809C374.316 178.238 374.938 178.453 375.727 178.453C376.5 178.469 377.168 178.309 377.73 177.973C378.293 177.629 378.613 177.16 378.691 176.566ZM390 167.086C391.062 167.102 391.973 167.391 392.73 167.953C393.488 168.516 394.047 169.293 394.406 170.285C394.773 171.27 394.898 172.348 394.781 173.52L394.758 173.777C394.609 175.012 394.242 176.129 393.656 177.129C393.07 178.121 392.312 178.895 391.383 179.449C390.453 180.004 389.434 180.266 388.324 180.234C387.27 180.219 386.359 179.93 385.594 179.367C384.836 178.805 384.281 178.039 383.93 177.07C383.578 176.102 383.453 175.035 383.555 173.871C383.672 172.559 384.027 171.379 384.621 170.332C385.215 169.285 385.977 168.477 386.906 167.906C387.844 167.328 388.875 167.055 390 167.086ZM385.688 173.883C385.633 174.375 385.633 174.887 385.688 175.418C385.766 176.34 386.039 177.074 386.508 177.621C386.984 178.168 387.617 178.453 388.406 178.477C389.109 178.5 389.758 178.328 390.352 177.961C390.945 177.586 391.445 177.023 391.852 176.273C392.258 175.523 392.52 174.691 392.637 173.777C392.699 173.059 392.711 172.453 392.672 171.961C392.578 171.016 392.293 170.27 391.816 169.723C391.34 169.176 390.707 168.887 389.918 168.855C388.824 168.832 387.895 169.262 387.129 170.145C386.363 171.027 385.891 172.184 385.711 173.613L385.688 173.883ZM399.574 175.184H397.652L399.633 162.938H401.859L399.574 175.184ZM396.785 178.945C396.793 178.578 396.91 178.277 397.137 178.043C397.363 177.801 397.664 177.672 398.039 177.656C398.398 177.641 398.695 177.75 398.93 177.984C399.164 178.219 399.281 178.516 399.281 178.875C399.281 179.242 399.164 179.543 398.93 179.777C398.695 180.004 398.395 180.125 398.027 180.141C397.66 180.156 397.359 180.051 397.125 179.824C396.898 179.598 396.785 179.305 396.785 178.945Z" fill="white"/>
<path d="M19.2 37V61.08H51.6V37H60.24V93H51.6V69.4H19.2V93H10.56V37H19.2ZM122.543 93L116.783 79.4H89.5831L83.7431 93H74.8631L98.7831 37H108.143L131.903 93H122.543ZM98.8631 57.64L93.1031 71.08H113.263L107.343 57.32C106.65 55.56 105.956 53.7733 105.263 51.96C104.57 50.0933 103.876 48.1733 103.183 46.2C102.436 48.2267 101.716 50.2 101.023 52.12C100.33 54.04 99.6098 55.88 98.8631 57.64ZM191.971 85.56C190.691 86.84 188.931 88.12 186.691 89.4C184.505 90.6267 181.971 91.6667 179.091 92.52C176.211 93.3733 173.145 93.8 169.891 93.8C165.838 93.8 162.051 93.1333 158.531 91.8C155.011 90.4133 151.918 88.4667 149.251 85.96C146.638 83.4533 144.585 80.44 143.091 76.92C141.651 73.3467 140.931 69.3733 140.931 65C140.931 60.8933 141.705 57.1067 143.251 53.64C144.798 50.1733 146.931 47.16 149.651 44.6C152.425 42.04 155.571 40.0667 159.091 38.68C162.611 37.24 166.345 36.52 170.291 36.52C173.598 36.52 176.691 37 179.571 37.96C182.505 38.8667 185.091 40.04 187.331 41.48C189.625 42.92 191.438 44.44 192.771 46.04L187.251 52.6C184.905 50.4133 182.291 48.6267 179.411 47.24C176.585 45.8 173.438 45.08 169.971 45.08C166.558 45.08 163.305 45.88 160.211 47.48C157.118 49.08 154.585 51.3733 152.611 54.36C150.691 57.3467 149.731 60.8933 149.731 65C149.731 69.48 150.718 73.2133 152.691 76.2C154.718 79.1867 157.331 81.4533 160.531 83C163.785 84.4933 167.278 85.24 171.011 85.24C174.798 85.24 178.078 84.52 180.851 83.08C183.625 81.5867 185.918 80.04 187.731 78.44L191.971 85.56ZM217.716 93H209.076V37H217.716V65.64L229.076 55.56L249.636 37H261.636L235.476 59.96L261.476 93H250.356L229.156 65.64L217.716 75.72V93ZM319.809 93L314.049 79.4H286.849L281.009 93H272.129L296.049 37H305.409L329.169 93H319.809ZM296.129 57.64L290.369 71.08H310.529L304.609 57.32C303.915 55.56 303.222 53.7733 302.529 51.96C301.835 50.0933 301.142 48.1733 300.449 46.2C299.702 48.2267 298.982 50.2 298.289 52.12C297.595 54.04 296.875 55.88 296.129 57.64ZM352.175 93V45.32H334.255V37H379.215V45.32H360.815V93H352.175ZM403.263 37V61.08H435.663V37H444.303V93H435.663V69.4H403.263V93H394.622V37H403.263ZM521.166 65C521.166 69.0533 520.419 72.84 518.926 76.36C517.486 79.8267 515.406 82.8667 512.686 85.48C510.019 88.0933 506.846 90.1467 503.166 91.64C499.539 93.08 495.539 93.8 491.166 93.8C486.792 93.8 482.766 93.08 479.086 91.64C475.406 90.1467 472.232 88.0933 469.566 85.48C466.899 82.8667 464.819 79.8267 463.326 76.36C461.886 72.84 461.166 69.0533 461.166 65C461.166 60.9467 461.886 57.1867 463.326 53.72C464.819 50.2 466.899 47.1333 469.566 44.52C472.232 41.9067 475.406 39.88 479.086 38.44C482.766 36.9467 486.792 36.2 491.166 36.2C495.539 36.2 499.539 36.9467 503.166 38.44C506.846 39.88 510.019 41.9067 512.686 44.52C515.406 47.1333 517.486 50.2 518.926 53.72C520.419 57.1867 521.166 60.9467 521.166 65ZM512.366 65C512.366 61.1067 511.459 57.64 509.646 54.6C507.832 51.5067 505.326 49.08 502.126 47.32C498.926 45.5067 495.272 44.6 491.166 44.6C486.952 44.6 483.246 45.5067 480.046 47.32C476.899 49.08 474.419 51.5067 472.606 54.6C470.846 57.64 469.966 61.1067 469.966 65C469.966 68.8933 470.846 72.3867 472.606 75.48C474.419 78.52 476.899 80.9467 480.046 82.76C483.246 84.52 486.952 85.4 491.166 85.4C495.272 85.4 498.926 84.52 502.126 82.76C505.326 80.9467 507.832 78.4933 509.646 75.4C511.459 72.3067 512.366 68.84 512.366 65ZM582.378 37H591.018V93H582.778L545.338 49.72C545.658 53.0267 545.978 56.36 546.298 59.72C546.618 63.0267 546.778 66.36 546.778 69.72V93H538.138V37H546.218L583.658 81.32C583.285 78.7067 582.991 75.9067 582.778 72.92C582.618 69.9333 582.511 66.9467 582.458 63.96C582.405 60.92 582.378 58.0667 582.378 55.4V37Z" fill="#080021" fill-opacity="0.5"/>
<path d="M19.2 37H24.2V32H19.2V37ZM19.2 61.08H14.2V66.08H19.2V61.08ZM51.6 61.08V66.08H56.6V61.08H51.6ZM51.6 37V32H46.6V37H51.6ZM60.24 37H65.24V32H60.24V37ZM60.24 93V98H65.24V93H60.24ZM51.6 93H46.6V98H51.6V93ZM51.6 69.4H56.6V64.4H51.6V69.4ZM19.2 69.4V64.4H14.2V69.4H19.2ZM19.2 93V98H24.2V93H19.2ZM10.56 93H5.56V98H10.56V93ZM10.56 37V32H5.56V37H10.56ZM14.2 37V61.08H24.2V37H14.2ZM19.2 66.08H51.6V56.08H19.2V66.08ZM56.6 61.08V37H46.6V61.08H56.6ZM51.6 42H60.24V32H51.6V42ZM55.24 37V93H65.24V37H55.24ZM60.24 88H51.6V98H60.24V88ZM56.6 93V69.4H46.6V93H56.6ZM51.6 64.4H19.2V74.4H51.6V64.4ZM14.2 69.4V93H24.2V69.4H14.2ZM19.2 88H10.56V98H19.2V88ZM15.56 93V37H5.56V93H15.56ZM10.56 42H19.2V32H10.56V42ZM122.543 93L117.939 94.95L119.231 98H122.543V93ZM116.783 79.4L121.387 77.45L120.095 74.4H116.783V79.4ZM89.5831 79.4V74.4H86.2887L84.9888 77.4271L89.5831 79.4ZM83.7431 93V98H87.0376L88.3374 94.9729L83.7431 93ZM74.8631 93L70.265 91.036L67.2904 98H74.8631V93ZM98.7831 37V32H95.4818L94.185 35.0359L98.7831 37ZM108.143 37L112.746 35.0471L111.453 32H108.143V37ZM131.903 93V98H139.456L136.506 91.0471L131.903 93ZM98.8631 57.64L103.459 59.6096L103.462 59.6012L103.466 59.5927L98.8631 57.64ZM93.1031 71.08L88.5074 69.1104L85.5204 76.08H93.1031V71.08ZM113.263 71.08V76.08H120.857L117.856 69.104L113.263 71.08ZM107.343 57.32L102.691 59.1526L102.72 59.2248L102.75 59.296L107.343 57.32ZM105.263 51.96L100.576 53.7009L100.584 53.7234L100.593 53.7457L105.263 51.96ZM103.183 46.2L107.9 44.5426L103.295 31.434L98.4914 44.4715L103.183 46.2ZM101.023 52.12L96.3204 50.4218L101.023 52.12ZM127.147 91.05L121.387 77.45L112.179 81.35L117.939 94.95L127.147 91.05ZM116.783 74.4H89.5831V84.4H116.783V74.4ZM84.9888 77.4271L79.1488 91.0271L88.3374 94.9729L94.1775 81.3729L84.9888 77.4271ZM83.7431 88H74.8631V98H83.7431V88ZM79.4612 94.964L103.381 38.964L94.185 35.0359L70.265 91.036L79.4612 94.964ZM98.7831 42H108.143V32H98.7831V42ZM103.54 38.9529L127.3 94.9529L136.506 91.0471L112.746 35.0471L103.54 38.9529ZM131.903 88H122.543V98H131.903V88ZM94.2674 55.6704L88.5074 69.1104L97.6989 73.0496L103.459 59.6096L94.2674 55.6704ZM93.1031 76.08H113.263V66.08H93.1031V76.08ZM117.856 69.104L111.936 55.344L102.75 59.296L108.67 73.056L117.856 69.104ZM111.995 55.4874C111.308 53.7434 110.621 51.9724 109.933 50.1743L100.593 53.7457C101.292 55.5743 101.991 57.3766 102.691 59.1526L111.995 55.4874ZM109.95 50.2191C109.268 48.3815 108.584 46.4894 107.9 44.5426L98.4658 47.8574C99.1685 49.8573 99.8719 51.8052 100.576 53.7009L109.95 50.2191ZM98.4914 44.4715C97.7412 46.5076 97.0175 48.4911 96.3204 50.4218L105.726 53.8182C106.415 51.9089 107.132 49.9457 107.875 47.9285L98.4914 44.4715ZM96.3204 50.4218C95.6559 52.2618 94.969 54.0166 94.2602 55.6872L103.466 59.5927C104.251 57.7434 105.004 55.8182 105.726 53.8182L96.3204 50.4218ZM191.971 85.56L195.507 89.0955L198.258 86.3445L196.267 83.0017L191.971 85.56ZM186.691 89.4L189.138 93.7607L189.155 93.751L189.172 93.7412L186.691 89.4ZM179.091 92.52L180.512 97.314H180.512L179.091 92.52ZM158.531 91.8L156.699 96.452L156.729 96.4641L156.76 96.4758L158.531 91.8ZM149.251 85.96L145.79 89.5684L145.808 89.5859L145.827 89.6031L149.251 85.96ZM143.091 76.92L138.454 78.7889L138.471 78.831L138.488 78.8727L143.091 76.92ZM143.251 53.64L147.817 55.6772L143.251 53.64ZM149.651 44.6L146.26 40.926L146.242 40.9424L146.224 40.959L149.651 44.6ZM159.091 38.68L160.924 43.332L160.954 43.3201L160.984 43.3077L159.091 38.68ZM179.571 37.96L177.99 42.7034L178.042 42.7208L178.095 42.737L179.571 37.96ZM187.331 41.48L184.627 45.6859L184.65 45.7003L184.672 45.7144L187.331 41.48ZM192.771 46.04L196.597 49.2592L199.293 46.0556L196.612 42.8391L192.771 46.04ZM187.251 52.6L183.843 56.258L187.691 59.8437L191.077 55.8192L187.251 52.6ZM179.411 47.24L177.142 51.6952L177.192 51.7207L177.242 51.745L179.411 47.24ZM160.211 47.48L162.508 51.9211V51.9211L160.211 47.48ZM152.611 54.36L148.44 51.6037L148.422 51.6299L148.405 51.6562L152.611 54.36ZM152.691 76.2L148.52 78.9563L148.537 78.982L148.554 79.0075L152.691 76.2ZM160.531 83L158.355 87.5017L158.4 87.5234L158.445 87.5442L160.531 83ZM180.851 83.08L183.155 87.5175L183.189 87.5002L183.222 87.4824L180.851 83.08ZM187.731 78.44L192.027 75.8817L188.943 70.7027L184.423 74.6908L187.731 78.44ZM188.436 82.0245C187.572 82.8884 186.214 83.9141 184.211 85.0588L189.172 93.7412C191.649 92.3259 193.811 90.7916 195.507 89.0955L188.436 82.0245ZM184.245 85.0393C182.439 86.0521 180.262 86.9584 177.671 87.726L180.512 97.314C183.681 96.375 186.57 95.2012 189.138 93.7607L184.245 85.0393ZM177.671 87.726C175.289 88.4319 172.703 88.8 169.891 88.8V98.8C173.586 98.8 177.134 98.3148 180.512 97.314L177.671 87.726ZM169.891 88.8C166.396 88.8 163.214 88.2272 160.302 87.1242L156.76 96.4758C160.888 98.0394 165.28 98.8 169.891 98.8V88.8ZM160.364 87.148C157.413 85.9856 154.865 84.3747 152.676 82.3169L145.827 89.6031C148.971 92.5587 152.609 94.841 156.699 96.452L160.364 87.148ZM152.712 82.3516C150.615 80.3397 148.938 77.8992 147.694 74.9673L138.488 78.8727C140.231 82.9808 142.661 86.5669 145.79 89.5684L152.712 82.3516ZM147.729 75.0511C146.558 72.1467 145.931 68.8189 145.931 65H135.931C135.931 69.9278 136.744 74.5467 138.454 78.7889L147.729 75.0511ZM145.931 65C145.931 61.5372 146.58 58.4517 147.817 55.6772L138.685 51.6028C136.83 55.7616 135.931 60.2495 135.931 65H145.931ZM147.817 55.6772C149.099 52.8052 150.848 50.3396 153.078 48.241L146.224 40.959C143.014 43.9804 140.497 47.5415 138.685 51.6028L147.817 55.6772ZM153.043 48.274C155.36 46.1347 157.978 44.4925 160.924 43.332L157.259 34.028C153.164 35.6408 149.489 37.9453 146.26 40.926L153.043 48.274ZM160.984 43.3077C163.881 42.1228 166.969 41.52 170.291 41.52V31.52C165.72 31.52 161.342 32.3572 157.198 34.0523L160.984 43.3077ZM170.291 41.52C173.108 41.52 175.663 41.9278 177.99 42.7034L181.152 33.2166C177.719 32.0722 174.088 31.52 170.291 31.52V41.52ZM178.095 42.737C180.66 43.5298 182.822 44.5251 184.627 45.6859L190.035 37.2741C187.361 35.5549 184.35 34.2035 181.048 33.183L178.095 42.737ZM184.672 45.7144C186.646 46.9537 188.018 48.1461 188.93 49.2409L196.612 42.8391C194.858 40.7339 192.603 38.8863 189.99 37.2455L184.672 45.7144ZM188.945 42.8208L183.425 49.3808L191.077 55.8192L196.597 49.2592L188.945 42.8208ZM190.66 48.942C187.946 46.4134 184.915 44.3408 181.58 42.735L177.242 51.745C179.667 52.9126 181.863 54.4133 183.843 56.258L190.66 48.942ZM181.681 42.7848C178.088 40.9543 174.152 40.08 169.971 40.08V50.08C172.724 50.08 175.081 50.6457 177.142 51.6952L181.681 42.7848ZM169.971 40.08C165.742 40.08 161.703 41.0794 157.914 43.0389L162.508 51.9211C164.907 50.6806 167.374 50.08 169.971 50.08V40.08ZM157.914 43.0389C154.041 45.0425 150.87 47.9253 148.44 51.6037L156.783 57.1163C158.299 54.8214 160.195 53.1175 162.508 51.9211L157.914 43.0389ZM148.405 51.6562C145.89 55.5695 144.731 60.0881 144.731 65H154.731C154.731 61.6985 155.493 59.1239 156.817 57.0638L148.405 51.6562ZM144.731 65C144.731 70.2135 145.884 74.9679 148.52 78.9563L156.863 73.4437C155.551 71.4588 154.731 68.7465 154.731 65H144.731ZM148.554 79.0075C151.066 82.7097 154.351 85.5664 158.355 87.5017L162.707 78.4983C160.311 77.3403 158.37 75.6637 156.829 73.3925L148.554 79.0075ZM158.445 87.5442C162.381 89.3508 166.59 90.24 171.011 90.24V80.24C167.966 80.24 165.188 79.6359 162.617 78.4558L158.445 87.5442ZM171.011 90.24C175.432 90.24 179.535 89.3974 183.155 87.5175L178.547 78.6425C176.621 79.6426 174.164 80.24 171.011 80.24V90.24ZM183.222 87.4824C186.236 85.8591 188.868 84.1047 191.039 82.1892L184.423 74.6908C182.967 75.9753 181.013 77.3143 178.481 78.6776L183.222 87.4824ZM183.435 80.9983L187.675 88.1183L196.267 83.0017L192.027 75.8817L183.435 80.9983ZM217.716 93V98H222.716V93H217.716ZM209.076 93H204.076V98H209.076V93ZM209.076 37V32H204.076V37H209.076ZM217.716 37H222.716V32H217.716V37ZM217.716 65.64H212.716V76.7612L221.034 69.38L217.716 65.64ZM229.076 55.56L232.394 59.2999L232.41 59.2858L232.426 59.2714L229.076 55.56ZM249.636 37V32H247.713L246.285 33.2886L249.636 37ZM261.636 37L264.934 40.7579L274.912 32H261.636V37ZM235.476 59.96L232.177 56.2021L228.616 59.328L231.546 63.052L235.476 59.96ZM261.476 93V98H271.773L265.405 89.908L261.476 93ZM250.356 93L246.403 96.0625L247.905 98H250.356V93ZM229.156 65.64L233.108 62.5775L229.846 58.3677L225.85 61.8885L229.156 65.64ZM217.716 75.72L214.41 71.9685L212.716 73.4616V75.72H217.716ZM217.716 88H209.076V98H217.716V88ZM214.076 93V37H204.076V93H214.076ZM209.076 42H217.716V32H209.076V42ZM212.716 37V65.64H222.716V37H212.716ZM221.034 69.38L232.394 59.2999L225.757 51.82L214.397 61.9L221.034 69.38ZM232.426 59.2714L252.986 40.7114L246.285 33.2886L225.725 51.8486L232.426 59.2714ZM249.636 42H261.636V32H249.636V42ZM258.337 33.2421L232.177 56.2021L238.774 63.7179L264.934 40.7579L258.337 33.2421ZM231.546 63.052L257.546 96.092L265.405 89.908L239.405 56.868L231.546 63.052ZM261.476 88H250.356V98H261.476V88ZM254.308 89.9375L233.108 62.5775L225.203 68.7025L246.403 96.0625L254.308 89.9375ZM225.85 61.8885L214.41 71.9685L221.021 79.4715L232.461 69.3915L225.85 61.8885ZM212.716 75.72V93H222.716V75.72H212.716ZM319.809 93L315.205 94.95L316.496 98H319.809V93ZM314.049 79.4L318.653 77.45L317.361 74.4H314.049V79.4ZM286.849 79.4V74.4H283.554L282.254 77.4271L286.849 79.4ZM281.009 93V98H284.303L285.603 94.9729L281.009 93ZM272.129 93L267.531 91.036L264.556 98H272.129V93ZM296.049 37V32H292.747L291.451 35.0359L296.049 37ZM305.409 37L310.012 35.0471L308.719 32H305.409V37ZM329.169 93V98H336.722L333.772 91.0471L329.169 93ZM296.129 57.64L300.724 59.6096L300.728 59.6012L300.732 59.5927L296.129 57.64ZM290.369 71.08L285.773 69.1104L282.786 76.08H290.369V71.08ZM310.529 71.08V76.08H318.123L315.122 69.104L310.529 71.08ZM304.609 57.32L299.957 59.1526L299.985 59.2248L300.016 59.296L304.609 57.32ZM302.529 51.96L297.842 53.7009L297.85 53.7234L297.858 53.7457L302.529 51.96ZM300.449 46.2L305.166 44.5426L300.56 31.434L295.757 44.4715L300.449 46.2ZM298.289 52.12L293.586 50.4218L298.289 52.12ZM324.413 91.05L318.653 77.45L309.445 81.35L315.205 94.95L324.413 91.05ZM314.049 74.4H286.849V84.4H314.049V74.4ZM282.254 77.4271L276.414 91.0271L285.603 94.9729L291.443 81.3729L282.254 77.4271ZM281.009 88H272.129V98H281.009V88ZM276.727 94.964L300.647 38.964L291.451 35.0359L267.531 91.036L276.727 94.964ZM296.049 42H305.409V32H296.049V42ZM300.806 38.9529L324.566 94.9529L333.772 91.0471L310.012 35.0471L300.806 38.9529ZM329.169 88H319.809V98H329.169V88ZM291.533 55.6704L285.773 69.1104L294.964 73.0496L300.724 59.6096L291.533 55.6704ZM290.369 76.08H310.529V66.08H290.369V76.08ZM315.122 69.104L309.202 55.344L300.016 59.296L305.936 73.056L315.122 69.104ZM309.261 55.4874C308.574 53.7434 307.887 51.9724 307.199 50.1743L297.858 53.7457C298.558 55.5743 299.257 57.3766 299.957 59.1526L309.261 55.4874ZM307.216 50.2191C306.533 48.3815 305.85 46.4894 305.166 44.5426L295.731 47.8574C296.434 49.8573 297.137 51.8052 297.842 53.7009L307.216 50.2191ZM295.757 44.4715C295.007 46.5076 294.283 48.4911 293.586 50.4218L302.992 53.8182C303.681 51.9089 304.397 49.9457 305.14 47.9285L295.757 44.4715ZM293.586 50.4218C292.922 52.2618 292.235 54.0166 291.526 55.6872L300.732 59.5927C301.516 57.7434 302.269 55.8182 302.992 53.8182L293.586 50.4218ZM352.175 93H347.175V98H352.175V93ZM352.175 45.32H357.175V40.32H352.175V45.32ZM334.255 45.32H329.255V50.32H334.255V45.32ZM334.255 37V32H329.255V37H334.255ZM379.215 37H384.215V32H379.215V37ZM379.215 45.32V50.32H384.215V45.32H379.215ZM360.815 45.32V40.32H355.815V45.32H360.815ZM360.815 93V98H365.815V93H360.815ZM357.175 93V45.32H347.175V93H357.175ZM352.175 40.32H334.255V50.32H352.175V40.32ZM339.255 45.32V37H329.255V45.32H339.255ZM334.255 42H379.215V32H334.255V42ZM374.215 37V45.32H384.215V37H374.215ZM379.215 40.32H360.815V50.32H379.215V40.32ZM355.815 45.32V93H365.815V45.32H355.815ZM360.815 88H352.175V98H360.815V88ZM403.263 37H408.263V32H403.263V37ZM403.263 61.08H398.263V66.08H403.263V61.08ZM435.663 61.08V66.08H440.663V61.08H435.663ZM435.663 37V32H430.663V37H435.663ZM444.302 37H449.302V32H444.302V37ZM444.302 93V98H449.302V93H444.302ZM435.663 93H430.663V98H435.663V93ZM435.663 69.4H440.663V64.4H435.663V69.4ZM403.263 69.4V64.4H398.263V69.4H403.263ZM403.263 93V98H408.263V93H403.263ZM394.622 93H389.622V98H394.622V93ZM394.622 37V32H389.622V37H394.622ZM398.263 37V61.08H408.263V37H398.263ZM403.263 66.08H435.663V56.08H403.263V66.08ZM440.663 61.08V37H430.663V61.08H440.663ZM435.663 42H444.302V32H435.663V42ZM439.302 37V93H449.302V37H439.302ZM444.302 88H435.663V98H444.302V88ZM440.663 93V69.4H430.663V93H440.663ZM435.663 64.4H403.263V74.4H435.663V64.4ZM398.263 69.4V93H408.263V69.4H398.263ZM403.263 88H394.622V98H403.263V88ZM399.622 93V37H389.622V93H399.622ZM394.622 42H403.263V32H394.622V42ZM518.926 76.36L514.323 74.4072L514.315 74.4246L514.308 74.442L518.926 76.36ZM512.686 85.48L509.221 81.8745L509.204 81.8916L509.186 81.9089L512.686 85.48ZM503.166 91.64L505.011 96.2871L505.028 96.2801L505.046 96.2731L503.166 91.64ZM479.086 91.64L477.206 96.2731L477.235 96.2848L477.264 96.2962L479.086 91.64ZM469.566 85.48L466.066 89.0511L469.566 85.48ZM463.326 76.36L458.698 78.2532L458.715 78.2958L458.734 78.3381L463.326 76.36ZM463.326 53.72L458.723 51.7673L458.715 51.7846L458.708 51.802L463.326 53.72ZM469.566 44.52L473.065 48.0911L469.566 44.52ZM479.086 38.44L480.908 43.0962L480.937 43.0848L480.966 43.0731L479.086 38.44ZM503.166 38.44L501.262 43.0634L501.303 43.0802L501.344 43.0962L503.166 38.44ZM512.686 44.52L509.186 48.0911L509.204 48.1084L509.221 48.1255L512.686 44.52ZM518.926 53.72L514.298 55.6132L514.315 55.6558L514.334 55.6981L518.926 53.72ZM509.646 54.6L505.332 57.1286L505.342 57.145L505.352 57.1614L509.646 54.6ZM502.126 47.32L499.661 51.6701L499.688 51.6858L499.716 51.7011L502.126 47.32ZM480.046 47.32L482.486 51.6838L482.499 51.677L482.511 51.6701L480.046 47.32ZM472.606 54.6L468.292 52.0714L468.285 52.0831L468.279 52.0948L472.606 54.6ZM472.606 75.48L468.26 77.9526L468.285 77.9973L468.312 78.0414L472.606 75.48ZM480.046 82.76L477.549 87.0921L477.592 87.1171L477.636 87.1411L480.046 82.76ZM502.126 82.76L504.535 87.1411L504.563 87.1258L504.591 87.1101L502.126 82.76ZM509.646 75.4L513.959 77.9286L509.646 75.4ZM516.166 65C516.166 68.4233 515.539 71.5415 514.323 74.4072L523.529 78.3128C525.299 74.1385 526.166 69.6834 526.166 65H516.166ZM514.308 74.442C513.134 77.2696 511.447 79.7358 509.221 81.8745L516.15 89.0855C519.364 85.9975 521.838 82.3838 523.543 78.278L514.308 74.442ZM509.186 81.9089C507.014 84.0376 504.401 85.7429 501.286 87.0069L505.046 96.2731C509.291 94.5505 513.024 92.1491 516.185 89.0511L509.186 81.9089ZM501.32 86.9929C498.348 88.1732 494.983 88.8 491.166 88.8V98.8C496.095 98.8 500.73 97.9867 505.011 96.2871L501.32 86.9929ZM491.166 88.8C487.349 88.8 483.948 88.1736 480.908 86.9838L477.264 96.2962C481.583 97.9864 486.235 98.8 491.166 98.8V88.8ZM480.966 87.0069C477.851 85.7429 475.237 84.0376 473.065 81.9089L466.066 89.0511C469.227 92.1491 472.961 94.5505 477.206 96.2731L480.966 87.0069ZM473.065 81.9089C470.868 79.7556 469.157 77.2583 467.918 74.3819L458.734 78.3381C460.481 82.395 462.93 85.9777 466.066 89.0511L473.065 81.9089ZM467.953 74.4668C466.775 71.5865 466.166 68.4473 466.166 65H456.166C456.166 69.6594 456.996 74.0935 458.698 78.2532L467.953 74.4668ZM466.166 65C466.166 61.552 466.775 58.4497 467.943 55.638L458.708 51.802C456.996 55.9237 456.166 60.3414 456.166 65H466.166ZM467.929 55.6727C469.171 52.7447 470.881 50.2317 473.065 48.0911L466.066 40.9489C462.917 44.0349 460.467 47.6553 458.723 51.7673L467.929 55.6727ZM473.065 48.0911C475.224 45.9758 477.817 44.3056 480.908 43.0962L477.264 33.7838C472.994 35.4544 469.241 37.8375 466.066 40.9489L473.065 48.0911ZM480.966 43.0731C483.991 41.8455 487.371 41.2 491.166 41.2V31.2C486.213 31.2 481.54 32.0478 477.206 33.8069L480.966 43.0731ZM491.166 41.2C494.961 41.2 498.305 41.8458 501.262 43.0634L505.069 33.8166C500.773 32.0475 496.117 31.2 491.166 31.2V41.2ZM501.344 43.0962C504.434 44.3056 507.028 45.9758 509.186 48.0911L516.185 40.9489C513.01 37.8375 509.257 35.4544 504.988 33.7838L501.344 43.0962ZM509.221 48.1255C511.434 50.2514 513.12 52.7334 514.298 55.6132L523.553 51.8268C521.851 47.6666 519.377 44.0153 516.15 40.9145L509.221 48.1255ZM514.334 55.6981C515.538 58.4949 516.166 61.5761 516.166 65H526.166C526.166 60.3173 525.3 55.8784 523.518 51.7419L514.334 55.6981ZM517.366 65C517.366 60.2976 516.26 55.9291 513.94 52.0386L505.352 57.1614C506.658 59.3509 507.366 61.9157 507.366 65H517.366ZM513.959 52.0714C511.681 48.1852 508.51 45.125 504.535 42.9389L499.716 51.7011C502.141 53.035 503.984 54.8281 505.332 57.1286L513.959 52.0714ZM504.591 42.9699C500.554 40.6826 496.034 39.6 491.166 39.6V49.6C494.511 49.6 497.297 50.3307 499.661 51.6701L504.591 42.9699ZM491.166 39.6C486.216 39.6 481.636 40.6719 477.581 42.9699L482.511 51.6701C484.855 50.3415 487.689 49.6 491.166 49.6V39.6ZM477.605 42.9562C473.686 45.1479 470.558 48.2062 468.292 52.0714L476.919 57.1286C478.28 54.8071 480.112 53.0121 482.486 51.6838L477.605 42.9562ZM468.279 52.0948C466.031 55.9765 464.966 60.3247 464.966 65H474.966C474.966 61.8887 475.66 59.3035 476.933 57.1052L468.279 52.0948ZM464.966 65C464.966 69.6766 466.031 74.0362 468.26 77.9526L476.951 73.0074C475.66 70.7371 474.966 68.11 474.966 65H464.966ZM468.312 78.0414C470.575 81.8353 473.682 84.8635 477.549 87.0921L482.542 78.4278C480.116 77.0298 478.263 75.2047 476.9 72.9186L468.312 78.0414ZM477.636 87.1411C481.681 89.3657 486.24 90.4 491.166 90.4V80.4C487.664 80.4 484.81 79.6743 482.455 78.3789L477.636 87.1411ZM491.166 90.4C496.008 90.4 500.509 89.3556 504.535 87.1411L499.716 78.3789C497.342 79.6844 494.536 80.4 491.166 80.4V90.4ZM504.591 87.1101C508.536 84.8746 511.689 81.8014 513.959 77.9286L505.332 72.8714C503.976 75.1852 502.116 77.0188 499.661 78.4099L504.591 87.1101ZM513.959 77.9286C516.254 74.0139 517.366 69.6636 517.366 65H507.366C507.366 68.0164 506.664 70.5994 505.332 72.8714L513.959 77.9286ZM582.378 37V32H577.378V37H582.378ZM591.018 37H596.018V32H591.018V37ZM591.018 93V98H596.018V93H591.018ZM582.778 93L578.997 96.2712L580.492 98H582.778V93ZM545.338 49.72L549.12 46.4488L538.849 34.5765L540.361 50.2016L545.338 49.72ZM546.298 59.72L541.321 60.194L541.321 60.2016L546.298 59.72ZM546.778 93V98H551.778V93H546.778ZM538.138 93H533.138V98H538.138V93ZM538.138 37V32H533.138V37H538.138ZM546.218 37L550.038 33.7734L548.54 32H546.218V37ZM583.658 81.32L579.839 84.5466L591.069 97.8408L588.608 80.6129L583.658 81.32ZM582.778 72.92L577.785 73.1875L577.788 73.2319L577.791 73.2762L582.778 72.92ZM582.458 63.96L577.459 64.0477V64.0493L582.458 63.96ZM582.378 42H591.018V32H582.378V42ZM586.018 37V93H596.018V37H586.018ZM591.018 88H582.778V98H591.018V88ZM586.56 89.7288L549.12 46.4488L541.557 52.9912L578.997 96.2712L586.56 89.7288ZM540.361 50.2016C540.681 53.5057 541.001 56.8365 541.321 60.194L551.276 59.246C550.955 55.8835 550.635 52.5476 550.315 49.2384L540.361 50.2016ZM541.321 60.2016C541.626 63.3464 541.778 66.519 541.778 69.72H551.778C551.778 66.201 551.611 62.7069 551.275 59.2384L541.321 60.2016ZM541.778 69.72V93H551.778V69.72H541.778ZM546.778 88H538.138V98H546.778V88ZM543.138 93V37H533.138V93H543.138ZM538.138 42H546.218V32H538.138V42ZM542.399 40.2266L579.839 84.5466L587.478 78.0934L550.038 33.7734L542.399 40.2266ZM588.608 80.6129C588.253 78.1302 587.971 75.4483 587.765 72.5638L577.791 73.2762C578.011 76.365 578.316 79.2831 578.708 82.0271L588.608 80.6129ZM587.771 72.6525C587.614 69.7251 587.51 66.7979 587.457 63.8707L577.459 64.0493C577.513 67.0954 577.622 70.1415 577.785 73.1875L587.771 72.6525ZM587.457 63.8723C587.404 60.8576 587.378 58.0337 587.378 55.4H577.378C577.378 58.0996 577.405 60.9824 577.459 64.0477L587.457 63.8723ZM587.378 55.4V37H577.378V55.4H587.378Z" fill="#080021" fill-opacity="0.5"/>
<path d="M19.2 24V48.08H51.6V24H60.24V80H51.6V56.4H19.2V80H10.56V24H19.2ZM122.543 80L116.783 66.4H89.5831L83.7431 80H74.8631L98.7831 24H108.143L131.903 80H122.543ZM98.8631 44.64L93.1031 58.08H113.263L107.343 44.32C106.65 42.56 105.956 40.7733 105.263 38.96C104.57 37.0933 103.876 35.1733 103.183 33.2C102.436 35.2267 101.716 37.2 101.023 39.12C100.33 41.04 99.6098 42.88 98.8631 44.64ZM191.971 72.56C190.691 73.84 188.931 75.12 186.691 76.4C184.505 77.6267 181.971 78.6667 179.091 79.52C176.211 80.3733 173.145 80.8 169.891 80.8C165.838 80.8 162.051 80.1333 158.531 78.8C155.011 77.4133 151.918 75.4667 149.251 72.96C146.638 70.4533 144.585 67.44 143.091 63.92C141.651 60.3467 140.931 56.3733 140.931 52C140.931 47.8933 141.705 44.1067 143.251 40.64C144.798 37.1733 146.931 34.16 149.651 31.6C152.425 29.04 155.571 27.0667 159.091 25.68C162.611 24.24 166.345 23.52 170.291 23.52C173.598 23.52 176.691 24 179.571 24.96C182.505 25.8667 185.091 27.04 187.331 28.48C189.625 29.92 191.438 31.44 192.771 33.04L187.251 39.6C184.905 37.4133 182.291 35.6267 179.411 34.24C176.585 32.8 173.438 32.08 169.971 32.08C166.558 32.08 163.305 32.88 160.211 34.48C157.118 36.08 154.585 38.3733 152.611 41.36C150.691 44.3467 149.731 47.8933 149.731 52C149.731 56.48 150.718 60.2133 152.691 63.2C154.718 66.1867 157.331 68.4533 160.531 70C163.785 71.4933 167.278 72.24 171.011 72.24C174.798 72.24 178.078 71.52 180.851 70.08C183.625 68.5867 185.918 67.04 187.731 65.44L191.971 72.56ZM217.716 80H209.076V24H217.716V52.64L229.076 42.56L249.636 24H261.636L235.476 46.96L261.476 80H250.356L229.156 52.64L217.716 62.72V80ZM319.809 80L314.049 66.4H286.849L281.009 80H272.129L296.049 24H305.409L329.169 80H319.809ZM296.129 44.64L290.369 58.08H310.529L304.609 44.32C303.915 42.56 303.222 40.7733 302.529 38.96C301.835 37.0933 301.142 35.1733 300.449 33.2C299.702 35.2267 298.982 37.2 298.289 39.12C297.595 41.04 296.875 42.88 296.129 44.64ZM352.175 80V32.32H334.255V24H379.215V32.32H360.815V80H352.175ZM403.263 24V48.08H435.663V24H444.303V80H435.663V56.4H403.263V80H394.622V24H403.263ZM521.166 52C521.166 56.0533 520.419 59.84 518.926 63.36C517.486 66.8267 515.406 69.8667 512.686 72.48C510.019 75.0933 506.846 77.1467 503.166 78.64C499.539 80.08 495.539 80.8 491.166 80.8C486.792 80.8 482.766 80.08 479.086 78.64C475.406 77.1467 472.232 75.0933 469.566 72.48C466.899 69.8667 464.819 66.8267 463.326 63.36C461.886 59.84 461.166 56.0533 461.166 52C461.166 47.9467 461.886 44.1867 463.326 40.72C464.819 37.2 466.899 34.1333 469.566 31.52C472.232 28.9067 475.406 26.88 479.086 25.44C482.766 23.9467 486.792 23.2 491.166 23.2C495.539 23.2 499.539 23.9467 503.166 25.44C506.846 26.88 510.019 28.9067 512.686 31.52C515.406 34.1333 517.486 37.2 518.926 40.72C520.419 44.1867 521.166 47.9467 521.166 52ZM512.366 52C512.366 48.1067 511.459 44.64 509.646 41.6C507.832 38.5067 505.326 36.08 502.126 34.32C498.926 32.5067 495.272 31.6 491.166 31.6C486.952 31.6 483.246 32.5067 480.046 34.32C476.899 36.08 474.419 38.5067 472.606 41.6C470.846 44.64 469.966 48.1067 469.966 52C469.966 55.8933 470.846 59.3867 472.606 62.48C474.419 65.52 476.899 67.9467 480.046 69.76C483.246 71.52 486.952 72.4 491.166 72.4C495.272 72.4 498.926 71.52 502.126 69.76C505.326 67.9467 507.832 65.4933 509.646 62.4C511.459 59.3067 512.366 55.84 512.366 52ZM582.378 24H591.018V80H582.778L545.338 36.72C545.658 40.0267 545.978 43.36 546.298 46.72C546.618 50.0267 546.778 53.36 546.778 56.72V80H538.138V24H546.218L583.658 68.32C583.285 65.7067 582.991 62.9067 582.778 59.92C582.618 56.9333 582.511 53.9467 582.458 50.96C582.405 47.92 582.378 45.0667 582.378 42.4V24Z" fill="white"/>
</svg>
