<svg width="255" height="72" viewBox="0 0 255 72" fill="none" xmlns="http://www.w3.org/2000/svg">
<g clip-path="url(#clip0)">
<path d="M61.6014 51.6489V37.6582H64.5527V51.6489H61.6014Z" fill="white"/>
<path d="M80.4229 51.6489H76.6719L70.6171 41.065H70.5314C70.652 42.9342 70.7123 44.2676 70.7123 45.065V51.6489H68.0751V37.6582H71.7976L77.8429 48.1368H77.9095C77.8143 46.3186 77.7667 45.0331 77.7667 44.2803V37.6582H80.4229L80.4229 51.6489Z" fill="white"/>
<path d="M92.1329 47.7634C92.1329 49.0266 91.6791 50.0218 90.7715 50.7491C89.8703 51.4764 88.6136 51.84 87.0015 51.84C85.5163 51.84 84.2025 51.5593 83.0601 50.9979V48.2419C83.9994 48.663 84.7928 48.9596 85.4402 49.1319C86.0939 49.3041 86.6905 49.3902 87.23 49.3902C87.8774 49.3902 88.3724 49.2658 88.7151 49.017C89.0642 48.7682 89.2388 48.3982 89.2388 47.907C89.2388 47.6326 89.1626 47.3902 89.0103 47.1797C88.8579 46.9628 88.6326 46.7554 88.3343 46.5577C88.0424 46.3599 87.4426 46.0441 86.535 45.6103C85.6845 45.2084 85.0467 44.8224 84.6214 44.4524C84.1962 44.0823 83.8566 43.6517 83.6028 43.1605C83.3489 42.6692 83.222 42.0951 83.222 41.438C83.222 40.2003 83.6377 39.2274 84.4691 38.5192C85.3069 37.8111 86.462 37.457 87.9345 37.457C88.658 37.457 89.3467 37.5432 90.0004 37.7154C90.6604 37.8877 91.3491 38.1301 92.0663 38.4427L91.1142 40.749C90.3717 40.4427 89.756 40.229 89.2673 40.1078C88.785 39.9866 88.3089 39.926 87.8393 39.926C87.2808 39.926 86.8523 40.0568 86.554 40.3183C86.2557 40.5799 86.1066 40.9212 86.1066 41.3423C86.1066 41.6038 86.1669 41.8335 86.2875 42.0313C86.4081 42.2227 86.5985 42.4109 86.8587 42.5959C87.1253 42.7745 87.7504 43.0999 88.7342 43.572C90.0353 44.1972 90.927 44.8256 91.4094 45.4572C91.8917 46.0824 92.1329 46.8511 92.1329 47.7634Z" fill="white"/>
<path d="M100.025 51.6489H97.0739V40.1271H93.2943V37.6582H103.805V40.1271H100.025V51.6489Z" fill="white"/>
<path d="M105.966 51.6489V37.6582H108.917V51.6489H105.966Z" fill="white"/>
<path d="M117.809 51.6489H114.858V40.1271H111.078V37.6582H121.588V40.1271H117.809V51.6489Z" fill="white"/>
<path d="M135.079 37.6582V46.711C135.079 47.7445 134.847 48.6504 134.384 49.4287C133.927 50.207 133.263 50.8035 132.394 51.2182C131.524 51.6329 130.496 51.8402 129.309 51.8402C127.52 51.8402 126.13 51.3809 125.139 50.4622C124.149 49.5372 123.654 48.274 123.654 46.6727V37.6582H126.596V46.2229C126.596 47.3011 126.812 48.0922 127.243 48.5962C127.675 49.1002 128.389 49.3522 129.386 49.3522C130.35 49.3522 131.048 49.1002 131.48 48.5962C131.918 48.0858 132.137 47.2883 132.137 46.2038V37.6582H135.079Z" fill="white"/>
<path d="M143.856 51.6489H140.905V40.1271H137.125V37.6582H147.636V40.1271H143.856V51.6489Z" fill="white"/>
<path d="M162.43 44.6343C162.43 46.9501 161.859 48.73 160.717 49.9741C159.574 51.2181 157.937 51.8401 155.804 51.8401C153.672 51.8401 152.034 51.2181 150.892 49.9741C149.749 48.73 149.178 46.9437 149.178 44.6151C149.178 42.2865 149.749 40.5098 150.892 39.2849C152.041 38.0536 153.684 37.438 155.823 37.438C157.962 37.438 159.596 38.0568 160.726 39.2945C161.862 40.5321 162.43 42.3121 162.43 44.6343ZM152.272 44.6343C152.272 46.1973 152.567 47.3744 153.158 48.1654C153.748 48.9565 154.63 49.3521 155.804 49.3521C158.159 49.3521 159.336 47.7795 159.336 44.6343C159.336 41.4827 158.165 39.9069 155.823 39.9069C154.649 39.9069 153.764 40.3057 153.167 41.1031C152.571 41.8942 152.272 43.0713 152.272 44.6343Z" fill="white"/>
<path d="M173.303 51.6489H170.399V37.6582H178.377V40.0889H173.303V43.6966H178.025V46.1177H173.303V51.6489Z" fill="white"/>
<path d="M189.116 51.6489H181.1V37.6582H189.116V40.0889H184.051V43.1607H188.763V45.5913H184.051V49.1991H189.116V51.6489Z" fill="white"/>
<path d="M203.577 44.5196C203.577 46.8226 202.923 48.5866 201.616 49.8115C200.315 51.0364 198.433 51.6489 195.97 51.6489H192.029V37.6582H196.399C198.671 37.6582 200.435 38.2611 201.692 39.4668C202.949 40.6726 203.577 42.3568 203.577 44.5196ZM200.511 44.5961C200.511 41.5913 199.191 40.0889 196.551 40.0889H194.98V49.1991H196.246C199.09 49.1991 200.511 47.6647 200.511 44.5961Z" fill="white"/>
<path d="M214.478 51.6489H206.462V37.6582H214.478V40.0889H209.413V43.1607H214.125V45.5913H209.413V49.1991H214.478V51.6489Z" fill="white"/>
<path d="M220.342 43.8688H221.294C222.227 43.8688 222.916 43.7125 223.36 43.3999C223.804 43.0873 224.026 42.5961 224.026 41.9262C224.026 41.2627 223.798 40.7906 223.341 40.5099C222.89 40.2292 222.189 40.0889 221.237 40.0889H220.342V43.8688ZM220.342 46.2803V51.6489H217.391V37.6582H221.446C223.338 37.6582 224.737 38.0059 225.645 38.7013C226.552 39.3903 227.006 40.4397 227.006 41.8497C227.006 42.6726 226.781 43.4063 226.33 44.0507C225.88 44.6886 225.242 45.1894 224.417 45.5531C226.511 48.6983 227.876 50.7302 228.51 51.6489H225.235L221.913 46.2803H220.342Z" fill="white"/>
<path d="M238.783 51.6487L237.774 48.3185H232.699L231.69 51.6487H228.51L233.423 37.6006H237.031L241.962 51.6487H238.783ZM237.069 45.8304C236.136 42.8128 235.609 41.1062 235.489 40.7107C235.374 40.3151 235.292 40.0025 235.241 39.7729C235.032 40.5895 234.432 42.6086 233.442 45.8304H237.069Z" fill="white"/>
<path d="M243.705 51.6489V37.6582H246.656V49.1991H252.302V51.6489H243.705Z" fill="white"/>
<path d="M32.9494 2.87988H21.4888C20.6976 2.87988 20.0562 3.52459 20.0562 4.31988V15.8399C20.0562 16.6352 20.6976 17.2799 21.4888 17.2799H32.9494C33.7406 17.2799 34.382 16.6352 34.382 15.8399V4.31988C34.382 3.52459 33.7406 2.87988 32.9494 2.87988Z" fill="white"/>
<path d="M50.1403 2.87988H38.6797C37.8885 2.87988 37.2471 3.52459 37.2471 4.31988V15.8399C37.2471 16.6352 37.8885 17.2799 38.6797 17.2799H50.1403C50.9315 17.2799 51.5729 16.6352 51.5729 15.8399V4.31988C51.5729 3.52459 50.9315 2.87988 50.1403 2.87988Z" fill="white"/>
<path d="M15.7584 20.1602H4.2977C3.5065 20.1602 2.86511 20.8049 2.86511 21.6002V33.1202C2.86511 33.9154 3.5065 34.5602 4.2977 34.5602H15.7584C16.5496 34.5602 17.191 33.9154 17.191 33.1202V21.6002C17.191 20.8049 16.5496 20.1602 15.7584 20.1602Z" fill="white"/>
<path d="M32.9494 20.1602H21.4888C20.6976 20.1602 20.0562 20.8049 20.0562 21.6002V33.1202C20.0562 33.9154 20.6976 34.5602 21.4888 34.5602H32.9494C33.7406 34.5602 34.382 33.9154 34.382 33.1202V21.6002C34.382 20.8049 33.7406 20.1602 32.9494 20.1602Z" fill="white"/>
<path d="M15.7584 37.4399H4.2977C3.5065 37.4399 2.86511 38.0847 2.86511 38.8799V50.3999C2.86511 51.1952 3.5065 51.8399 4.2977 51.8399H15.7584C16.5496 51.8399 17.191 51.1952 17.191 50.3999V38.8799C17.191 38.0847 16.5496 37.4399 15.7584 37.4399Z" fill="white"/>
<path d="M32.9494 37.4399H21.4888C20.6976 37.4399 20.0562 38.0847 20.0562 38.8799V50.3999C20.0562 51.1952 20.6976 51.8399 21.4888 51.8399H32.9494C33.7406 51.8399 34.382 51.1952 34.382 50.3999V38.8799C34.382 38.0847 33.7406 37.4399 32.9494 37.4399Z" fill="white"/>
<path d="M50.1403 37.4399H38.6797C37.8885 37.4399 37.2471 38.0847 37.2471 38.8799V50.3999C37.2471 51.1952 37.8885 51.8399 38.6797 51.8399H50.1403C50.9315 51.8399 51.5729 51.1952 51.5729 50.3999V38.8799C51.5729 38.0847 50.9315 37.4399 50.1403 37.4399Z" fill="white"/>
<path d="M15.7584 54.7197H4.2977C3.5065 54.7197 2.86511 55.3644 2.86511 56.1597V67.6797C2.86511 68.475 3.5065 69.1197 4.2977 69.1197H15.7584C16.5496 69.1197 17.191 68.475 17.191 67.6797V56.1597C17.191 55.3644 16.5496 54.7197 15.7584 54.7197Z" fill="white"/>
<path d="M32.9494 54.7197H21.4888C20.6976 54.7197 20.0562 55.3644 20.0562 56.1597V67.6797C20.0562 68.475 20.6976 69.1197 21.4888 69.1197H32.9494C33.7406 69.1197 34.382 68.475 34.382 67.6797V56.1597C34.382 55.3644 33.7406 54.7197 32.9494 54.7197Z" fill="white"/>
<path d="M10.028 18.0002C14.3796 18.0002 17.9072 14.4543 17.9072 10.0802C17.9072 5.70606 14.3796 2.16016 10.028 2.16016C5.67645 2.16016 2.1488 5.70606 2.1488 10.0802C2.1488 14.4543 5.67645 18.0002 10.028 18.0002Z" fill="white"/>
<path d="M62.8858 65.5469V70H61.6407V59.292H64.5777C65.8912 59.292 66.8604 59.5435 67.4854 60.0464C68.1153 60.5493 68.4303 61.3062 68.4303 62.3169C68.4303 63.7329 67.7125 64.6899 66.2769 65.188L69.1847 70H67.7125L65.1197 65.5469H62.8858ZM62.8858 64.4775H64.5924C65.4713 64.4775 66.1158 64.3042 66.526 63.9575C66.9361 63.606 67.1412 63.0811 67.1412 62.3828C67.1412 61.6748 66.9312 61.1646 66.5113 60.8521C66.0963 60.5396 65.4273 60.3833 64.5045 60.3833H62.8858V64.4775ZM71.9459 70H70.7301V61.9727H71.9459V70ZM70.6275 59.7974C70.6275 59.519 70.6959 59.3164 70.8326 59.1895C70.9693 59.0576 71.1402 58.9917 71.3453 58.9917C71.5406 58.9917 71.7091 59.0576 71.8507 59.1895C71.9923 59.3213 72.0631 59.5239 72.0631 59.7974C72.0631 60.0708 71.9923 60.2759 71.8507 60.4126C71.7091 60.5444 71.5406 60.6104 71.3453 60.6104C71.1402 60.6104 70.9693 60.5444 70.8326 60.4126C70.6959 60.2759 70.6275 60.0708 70.6275 59.7974ZM81.4527 65.979C81.4527 67.2876 81.1231 68.3105 80.464 69.0479C79.8048 69.7803 78.8941 70.1465 77.732 70.1465C77.0143 70.1465 76.377 69.978 75.8204 69.6411C75.2638 69.3042 74.8341 68.8208 74.5313 68.1909C74.2286 67.561 74.0772 66.8237 74.0772 65.979C74.0772 64.6704 74.4044 63.6523 75.0587 62.9248C75.713 62.1924 76.6212 61.8262 77.7833 61.8262C78.9063 61.8262 79.7975 62.1997 80.4566 62.9468C81.1207 63.6938 81.4527 64.7046 81.4527 65.979ZM75.337 65.979C75.337 67.0044 75.5421 67.7856 75.9522 68.3228C76.3624 68.8599 76.9654 69.1284 77.7613 69.1284C78.5572 69.1284 79.1602 68.8623 79.5704 68.3301C79.9854 67.793 80.193 67.0093 80.193 65.979C80.193 64.9585 79.9854 64.1846 79.5704 63.6572C79.1602 63.125 78.5523 62.8589 77.7467 62.8589C76.9508 62.8589 76.3502 63.1201 75.9449 63.6426C75.5396 64.165 75.337 64.9438 75.337 65.979ZM92.3805 64.3896H96.0206V69.5972C95.4542 69.7778 94.878 69.9146 94.2921 70.0073C93.7061 70.1001 93.0274 70.1465 92.256 70.1465C90.6349 70.1465 89.3727 69.6655 88.4693 68.7036C87.566 67.7368 87.1143 66.3843 87.1143 64.646C87.1143 63.5327 87.3365 62.5586 87.7809 61.7236C88.2301 60.8838 88.8746 60.2441 89.7144 59.8047C90.5543 59.3604 91.5382 59.1382 92.6661 59.1382C93.8087 59.1382 94.8731 59.3481 95.8595 59.7681L95.3761 60.8667C94.4093 60.4565 93.4791 60.2515 92.5855 60.2515C91.2818 60.2515 90.2638 60.6396 89.5313 61.416C88.7989 62.1924 88.4327 63.269 88.4327 64.646C88.4327 66.0913 88.7843 67.1875 89.4874 67.9346C90.1954 68.6816 91.233 69.0552 92.6002 69.0552C93.3424 69.0552 94.0675 68.9697 94.7755 68.7988V65.5029H92.3805V64.3896ZM102.078 61.8262C102.434 61.8262 102.754 61.8555 103.037 61.9141L102.869 63.042C102.537 62.9688 102.244 62.9321 101.99 62.9321C101.34 62.9321 100.784 63.1958 100.32 63.7231C99.8609 64.2505 99.6314 64.9072 99.6314 65.6934V70H98.4156V61.9727H99.419L99.5582 63.4595H99.6168C99.9146 62.937 100.274 62.5342 100.693 62.251C101.113 61.9678 101.575 61.8262 102.078 61.8262ZM109.475 70L109.233 68.8574H109.175C108.775 69.3604 108.374 69.7021 107.974 69.8828C107.578 70.0586 107.083 70.1465 106.487 70.1465C105.691 70.1465 105.066 69.9414 104.612 69.5312C104.163 69.1211 103.938 68.5376 103.938 67.7808C103.938 66.1597 105.234 65.3101 107.827 65.2319L109.19 65.188V64.6899C109.19 64.0601 109.053 63.5962 108.779 63.2983C108.511 62.9956 108.079 62.8442 107.483 62.8442C106.814 62.8442 106.057 63.0493 105.212 63.4595L104.839 62.5293C105.234 62.3145 105.667 62.146 106.135 62.0239C106.609 61.9019 107.083 61.8408 107.556 61.8408C108.513 61.8408 109.221 62.0532 109.68 62.478C110.144 62.9028 110.376 63.584 110.376 64.5215V70H109.475ZM106.729 69.1431C107.485 69.1431 108.079 68.9355 108.508 68.5205C108.943 68.1055 109.16 67.5244 109.16 66.7773V66.0522L107.944 66.1035C106.978 66.1377 106.279 66.2891 105.85 66.5576C105.425 66.8213 105.212 67.2339 105.212 67.7954C105.212 68.2349 105.344 68.5693 105.608 68.7988C105.877 69.0283 106.25 69.1431 106.729 69.1431ZM118.381 70V64.8071C118.381 64.1528 118.233 63.6646 117.935 63.3423C117.637 63.02 117.171 62.8589 116.536 62.8589C115.696 62.8589 115.081 63.0859 114.69 63.54C114.299 63.9941 114.104 64.7437 114.104 65.7886V70H112.888V61.9727H113.877L114.075 63.0713H114.133C114.382 62.6758 114.732 62.3706 115.181 62.1558C115.63 61.936 116.13 61.8262 116.682 61.8262C117.649 61.8262 118.377 62.0605 118.865 62.5293C119.353 62.9932 119.597 63.7378 119.597 64.7632V70H118.381ZM127.566 68.9233H127.5C126.939 69.7388 126.099 70.1465 124.981 70.1465C123.931 70.1465 123.113 69.7876 122.527 69.0698C121.946 68.3521 121.655 67.3315 121.655 66.0083C121.655 64.6851 121.948 63.6572 122.534 62.9248C123.12 62.1924 123.936 61.8262 124.981 61.8262C126.069 61.8262 126.904 62.2217 127.485 63.0127H127.581L127.529 62.4341L127.5 61.8701V58.6035H128.716V70H127.727L127.566 68.9233ZM125.134 69.1284C125.964 69.1284 126.565 68.9038 126.936 68.4546C127.312 68.0005 127.5 67.2705 127.5 66.2646V66.0083C127.5 64.8706 127.31 64.0601 126.929 63.5767C126.553 63.0884 125.95 62.8442 125.12 62.8442C124.407 62.8442 123.86 63.1226 123.479 63.6792C123.103 64.231 122.915 65.0122 122.915 66.0229C122.915 67.0483 123.103 67.8223 123.479 68.3447C123.855 68.8672 124.407 69.1284 125.134 69.1284ZM134.692 70.1465C133.506 70.1465 132.568 69.7852 131.88 69.0625C131.196 68.3398 130.855 67.3364 130.855 66.0522C130.855 64.7583 131.172 63.7305 131.807 62.9688C132.446 62.207 133.303 61.8262 134.378 61.8262C135.383 61.8262 136.179 62.1582 136.765 62.8223C137.351 63.4814 137.644 64.353 137.644 65.437V66.2061H132.114C132.139 67.1484 132.376 67.8638 132.825 68.3521C133.279 68.8403 133.916 69.0845 134.736 69.0845C135.601 69.0845 136.455 68.9038 137.3 68.5425V69.6265C136.87 69.812 136.462 69.9438 136.077 70.022C135.696 70.105 135.234 70.1465 134.692 70.1465ZM134.363 62.8442C133.718 62.8442 133.203 63.0542 132.817 63.4741C132.437 63.894 132.212 64.4751 132.144 65.2173H136.34C136.34 64.4507 136.17 63.8647 135.828 63.4595C135.486 63.0493 134.998 62.8442 134.363 62.8442ZM149.085 68.9233H149.019C148.457 69.7388 147.617 70.1465 146.499 70.1465C145.449 70.1465 144.631 69.7876 144.046 69.0698C143.464 68.3521 143.174 67.3315 143.174 66.0083C143.174 64.6851 143.467 63.6572 144.053 62.9248C144.639 62.1924 145.454 61.8262 146.499 61.8262C147.588 61.8262 148.423 62.2217 149.004 63.0127H149.099L149.048 62.4341L149.019 61.8701V58.6035H150.234V70H149.246L149.085 68.9233ZM146.653 69.1284C147.483 69.1284 148.084 68.9038 148.455 68.4546C148.831 68.0005 149.019 67.2705 149.019 66.2646V66.0083C149.019 64.8706 148.828 64.0601 148.447 63.5767C148.071 63.0884 147.468 62.8442 146.638 62.8442C145.925 62.8442 145.379 63.1226 144.998 63.6792C144.622 64.231 144.434 65.0122 144.434 66.0229C144.434 67.0483 144.622 67.8223 144.998 68.3447C145.374 68.8672 145.925 69.1284 146.653 69.1284ZM159.749 65.979C159.749 67.2876 159.419 68.3105 158.76 69.0479C158.101 69.7803 157.19 70.1465 156.028 70.1465C155.31 70.1465 154.673 69.978 154.116 69.6411C153.56 69.3042 153.13 68.8208 152.827 68.1909C152.525 67.561 152.373 66.8237 152.373 65.979C152.373 64.6704 152.7 63.6523 153.355 62.9248C154.009 62.1924 154.917 61.8262 156.079 61.8262C157.202 61.8262 158.093 62.1997 158.753 62.9468C159.417 63.6938 159.749 64.7046 159.749 65.979ZM153.633 65.979C153.633 67.0044 153.838 67.7856 154.248 68.3228C154.658 68.8599 155.261 69.1284 156.057 69.1284C156.853 69.1284 157.456 68.8623 157.866 68.3301C158.281 67.793 158.489 67.0093 158.489 65.979C158.489 64.9585 158.281 64.1846 157.866 63.6572C157.456 63.125 156.848 62.8589 156.043 62.8589C155.247 62.8589 154.646 63.1201 154.241 63.6426C153.836 64.165 153.633 64.9438 153.633 65.979ZM174.331 70H172.91L167.058 61.0132H167C167.078 62.0679 167.117 63.0347 167.117 63.9136V70H165.967V59.292H167.373L173.211 68.2422H173.269C173.259 68.1104 173.237 67.688 173.203 66.9751C173.169 66.2573 173.157 65.7446 173.167 65.437V59.292H174.331V70ZM184.021 65.979C184.021 67.2876 183.691 68.3105 183.032 69.0479C182.373 69.7803 181.462 70.1465 180.3 70.1465C179.583 70.1465 178.945 69.978 178.389 69.6411C177.832 69.3042 177.402 68.8208 177.1 68.1909C176.797 67.561 176.646 66.8237 176.646 65.979C176.646 64.6704 176.973 63.6523 177.627 62.9248C178.281 62.1924 179.19 61.8262 180.352 61.8262C181.475 61.8262 182.366 62.1997 183.025 62.9468C183.689 63.6938 184.021 64.7046 184.021 65.979ZM177.905 65.979C177.905 67.0044 178.11 67.7856 178.521 68.3228C178.931 68.8599 179.534 69.1284 180.33 69.1284C181.126 69.1284 181.729 68.8623 182.139 68.3301C182.554 67.793 182.761 67.0093 182.761 65.979C182.761 64.9585 182.554 64.1846 182.139 63.6572C181.729 63.125 181.121 62.8589 180.315 62.8589C179.519 62.8589 178.919 63.1201 178.513 63.6426C178.108 64.165 177.905 64.9438 177.905 65.979ZM189.822 61.8262C190.178 61.8262 190.498 61.8555 190.781 61.9141L190.613 63.042C190.281 62.9688 189.988 62.9321 189.734 62.9321C189.085 62.9321 188.528 63.1958 188.064 63.7231C187.605 64.2505 187.376 64.9072 187.376 65.6934V70H186.16V61.9727H187.163L187.302 63.4595H187.361C187.659 62.937 188.018 62.5342 188.438 62.251C188.858 61.9678 189.319 61.8262 189.822 61.8262ZM194.876 69.1431C195.09 69.1431 195.298 69.1284 195.498 69.0991C195.698 69.0649 195.857 69.0308 195.974 68.9966V69.9268C195.842 69.9902 195.647 70.0415 195.388 70.0806C195.134 70.1245 194.905 70.1465 194.7 70.1465C193.147 70.1465 192.371 69.3286 192.371 67.6929V62.9175H191.221V62.3315L192.371 61.8262L192.883 60.1123H193.587V61.9727H195.916V62.9175H193.587V67.6416C193.587 68.125 193.701 68.4961 193.931 68.7549C194.16 69.0137 194.475 69.1431 194.876 69.1431ZM200.977 70.1465C199.79 70.1465 198.853 69.7852 198.164 69.0625C197.481 68.3398 197.139 67.3364 197.139 66.0522C197.139 64.7583 197.456 63.7305 198.091 62.9688C198.731 62.207 199.587 61.8262 200.662 61.8262C201.668 61.8262 202.463 62.1582 203.049 62.8223C203.635 63.4814 203.928 64.353 203.928 65.437V66.2061H198.399C198.423 67.1484 198.66 67.8638 199.109 68.3521C199.563 68.8403 200.2 69.0845 201.021 69.0845C201.885 69.0845 202.739 68.9038 203.584 68.5425V69.6265C203.154 69.812 202.747 69.9438 202.361 70.022C201.98 70.105 201.519 70.1465 200.977 70.1465ZM200.647 62.8442C200.003 62.8442 199.487 63.0542 199.102 63.4741C198.721 63.894 198.496 64.4751 198.428 65.2173H202.625C202.625 64.4507 202.454 63.8647 202.112 63.4595C201.77 63.0493 201.282 62.8442 200.647 62.8442Z" fill="white"/>
</g>
<defs>
<clipPath id="clip0">
<rect width="255" height="72" fill="white"/>
</clipPath>
</defs>
</svg>
