<svg width="222" height="73" viewBox="0 0 222 73" fill="none" xmlns="http://www.w3.org/2000/svg">
<g clip-path="url(#clip0)">
<path d="M218.174 18.514C218.174 15.9436 216.113 13.8599 213.57 13.8599C211.027 13.8599 208.966 15.9436 208.966 18.514V33.921C208.966 36.4914 211.027 38.5752 213.57 38.5752C216.113 38.5752 218.174 36.4914 218.174 33.921V18.514Z" fill="white"/>
<path d="M107.75 2.53271C98.3579 2.53271 91.3246 10.753 91.3246 20.026V34.2132C91.3246 35.3693 91.779 36.478 92.5876 37.2954C93.3963 38.1129 94.4931 38.5721 95.6367 38.5721C96.7803 38.5721 97.8771 38.1129 98.6858 37.2954C99.4944 36.478 99.9487 35.3693 99.9487 34.2132V20.026C99.9487 15.5837 103.124 11.3082 107.75 11.3082C112.377 11.3082 115.552 15.5837 115.552 20.026V34.2132C115.552 34.7859 115.663 35.3531 115.879 35.8823C116.096 36.4115 116.413 36.8924 116.814 37.2975C117.214 37.7026 117.69 38.024 118.213 38.2432C118.737 38.4625 119.298 38.5753 119.864 38.5753C120.431 38.5753 120.992 38.4625 121.515 38.2432C122.038 38.024 122.514 37.7026 122.914 37.2975C123.315 36.8924 123.632 36.4115 123.849 35.8823C124.065 35.3531 124.177 34.7859 124.176 34.2132V20.026C124.176 10.753 117.146 2.53271 107.75 2.53271Z" fill="white"/>
<path d="M197.773 2.75391C196.893 2.75435 196.034 3.02459 195.31 3.52892C194.585 4.03324 194.029 4.74792 193.715 5.57851L186.215 25.4117L178.451 5.53358C178.131 4.71394 177.574 4.0106 176.853 3.5149C176.133 3.01921 175.281 2.75406 174.409 2.75391H174.365C173.656 2.75431 172.959 2.92989 172.333 3.26532C171.707 3.60076 171.171 4.08588 170.773 4.67839C170.375 5.27091 170.127 5.95282 170.049 6.6647C169.972 7.37658 170.068 8.09681 170.329 8.76261L180.007 33.4779C181.106 36.2544 183.182 38.5879 186.323 38.5879C189.463 38.5879 191.543 36.0875 192.588 33.3656L201.837 8.71768C202.087 8.05259 202.172 7.33629 202.087 6.63028C202.002 5.92427 201.749 5.24966 201.349 4.66439C200.95 4.07911 200.415 3.60066 199.792 3.27013C199.169 2.93959 198.476 2.76685 197.773 2.76675" fill="white"/>
<path d="M148.769 2.58691C139.649 2.58691 132.232 10.4188 132.232 20.1348V34.2129C132.231 35.3684 132.684 36.4769 133.491 37.2949C134.299 38.1128 135.394 38.5733 136.538 38.575H136.649C137.217 38.5779 137.78 38.4673 138.306 38.2493C138.832 38.0314 139.31 37.7105 139.713 37.3051C140.116 36.8997 140.436 36.4178 140.654 35.8871C140.871 35.3564 140.983 34.7874 140.983 34.2129V20.1348C140.983 15.3201 144.498 11.3625 148.785 11.3625C153.125 11.3625 156.64 15.3041 156.64 20.1348V34.2129C156.64 34.7856 156.751 35.3527 156.968 35.8819C157.184 36.4111 157.502 36.892 157.902 37.2971C158.303 37.7022 158.778 38.0236 159.301 38.2429C159.825 38.4621 160.386 38.575 160.952 38.575H160.987C161.554 38.575 162.115 38.4621 162.638 38.2429C163.162 38.0236 163.637 37.7022 164.037 37.2971C164.438 36.892 164.755 36.4111 164.972 35.8819C165.188 35.3527 165.3 34.7856 165.299 34.2129V20.1348C165.299 10.4188 157.885 2.58691 148.766 2.58691" fill="white"/>
<path d="M148.794 13.8599C147.559 13.8599 146.374 14.356 145.5 15.239C144.627 16.1221 144.136 17.3198 144.136 18.5686C144.136 19.8174 144.627 21.0151 145.5 21.8982C146.374 22.7813 147.559 23.2774 148.794 23.2774C149.406 23.2778 150.012 23.1563 150.578 22.9198C151.143 22.6834 151.657 22.3366 152.09 21.8993C152.523 21.462 152.866 20.9428 153.1 20.3713C153.335 19.7998 153.455 19.1872 153.455 18.5686C153.455 17.95 153.335 17.3374 153.1 16.7659C152.866 16.1944 152.523 15.6752 152.09 15.2379C151.657 14.8006 151.143 14.4538 150.578 14.2174C150.012 13.9809 149.406 13.8594 148.794 13.8599Z" fill="white"/>
<path d="M213.57 11.7476C214.492 11.7483 215.394 11.4724 216.161 10.9549C216.928 10.4374 217.526 9.70149 217.879 8.84036C218.232 7.97923 218.325 7.03155 218.145 6.11722C217.965 5.20289 217.521 4.363 216.869 3.70383C216.217 3.04466 215.386 2.59582 214.481 2.41412C213.577 2.23241 212.639 2.32599 211.788 2.68302C210.936 3.04006 210.208 3.6445 209.696 4.41987C209.184 5.19524 208.911 6.10669 208.912 7.0389C208.912 8.28773 209.402 9.48542 210.276 10.3685C211.149 11.2515 212.334 11.7476 213.57 11.7476Z" fill="white"/>
<path d="M98.2325 55.855H97.0799L92.7027 49.1548V55.855H91.5502V47.1602H92.7027L97.0919 53.8903V47.1602H98.2325V55.855ZM107.246 47.1602V53.0722C107.242 53.8923 106.983 54.5631 106.47 55.0846C105.96 55.6062 105.267 55.8988 104.391 55.9625L104.087 55.9744C103.135 55.9744 102.377 55.7176 101.812 55.2041C101.246 54.6905 100.96 53.9839 100.952 53.0841V47.1602H102.086V53.0483C102.086 53.6773 102.26 54.167 102.606 54.5173C102.952 54.8637 103.446 55.0369 104.087 55.0369C104.736 55.0369 105.231 54.8637 105.574 54.5173C105.92 54.171 106.093 53.6833 106.093 53.0543V47.1602H107.246ZM104.642 44.8313H105.98L104.379 46.5869H103.49L104.642 44.8313ZM116.307 53.0961C116.2 54.0157 115.859 54.7263 115.286 55.228C114.717 55.7256 113.958 55.9744 113.011 55.9744C111.984 55.9744 111.159 55.6062 110.538 54.8697C109.921 54.1331 109.613 53.1478 109.613 51.9137V51.0776C109.613 50.2695 109.756 49.5588 110.043 48.9457C110.333 48.3327 110.743 47.8629 111.273 47.5364C111.802 47.206 112.416 47.0408 113.112 47.0408C114.036 47.0408 114.776 47.2996 115.334 47.8171C115.891 48.3307 116.216 49.0433 116.307 49.955H115.155C115.055 49.2622 114.838 48.7606 114.504 48.4501C114.173 48.1396 113.709 47.9843 113.112 47.9843C112.38 47.9843 111.804 48.255 111.386 48.7965C110.972 49.3379 110.765 50.1082 110.765 51.1075V51.9495C110.765 52.893 110.962 53.6435 111.357 54.2008C111.751 54.7582 112.302 55.0369 113.011 55.0369C113.648 55.0369 114.135 54.8935 114.474 54.6069C114.816 54.3163 115.043 53.8127 115.155 53.0961H116.307ZM119.886 54.9174H124.007V55.855H118.734V47.1602H119.886V54.9174ZM131.085 51.836H127.317V54.9174H131.694V55.855H126.171V47.1602H131.635V48.1037H127.317V50.8985H131.085V51.836ZM140.666 51.7883C140.666 52.6402 140.523 53.3847 140.236 54.0217C139.949 54.6547 139.543 55.1384 139.018 55.4728C138.492 55.8072 137.879 55.9744 137.179 55.9744C136.494 55.9744 135.887 55.8072 135.357 55.4728C134.828 55.1344 134.416 54.6547 134.121 54.0336C133.83 53.4086 133.681 52.686 133.673 51.8659V51.2389C133.673 50.4028 133.819 49.6643 134.109 49.0234C134.4 48.3824 134.81 47.8927 135.339 47.5543C135.873 47.212 136.482 47.0408 137.167 47.0408C137.863 47.0408 138.476 47.21 139.006 47.5484C139.539 47.8828 139.949 48.3705 140.236 49.0114C140.523 49.6484 140.666 50.3909 140.666 51.2389V51.7883ZM139.525 51.2269C139.525 50.1958 139.318 49.4056 138.904 48.8562C138.49 48.3028 137.911 48.0261 137.167 48.0261C136.442 48.0261 135.871 48.3028 135.453 48.8562C135.039 49.4056 134.826 50.1699 134.814 51.1493V51.7883C134.814 52.7875 135.023 53.5738 135.441 54.1471C135.863 54.7164 136.442 55.001 137.179 55.001C137.919 55.001 138.492 54.7323 138.898 54.1949C139.304 53.6534 139.514 52.8791 139.525 51.8719V51.2269ZM151.933 53.5857H148.29L147.472 55.855H146.29L149.61 47.1602H150.613L153.939 55.855H152.763L151.933 53.5857ZM148.637 52.6422H151.593L150.112 48.5755L148.637 52.6422ZM158.319 54.3322L160.803 47.1602H162.057L158.832 55.855H157.817L154.598 47.1602H155.847L158.319 54.3322ZM168.431 53.5857H164.788L163.97 55.855H162.788L166.108 47.1602H167.111L170.437 55.855H169.261L168.431 53.5857ZM165.135 52.6422H168.091L166.61 48.5755L165.135 52.6422ZM179.146 55.855H177.994L173.617 49.1548V55.855H172.464V47.1602H173.617L178.006 53.8903V47.1602H179.146V55.855ZM188.434 53.0961C188.327 54.0157 187.987 54.7263 187.413 55.228C186.844 55.7256 186.086 55.9744 185.138 55.9744C184.111 55.9744 183.287 55.6062 182.666 54.8697C182.049 54.1331 181.74 53.1478 181.74 51.9137V51.0776C181.74 50.2695 181.884 49.5588 182.17 48.9457C182.461 48.3327 182.871 47.8629 183.4 47.5364C183.93 47.206 184.543 47.0408 185.24 47.0408C186.163 47.0408 186.904 47.2996 187.461 47.8171C188.018 48.3307 188.343 49.0433 188.434 49.955H187.282C187.182 49.2622 186.965 48.7606 186.631 48.4501C186.301 48.1396 185.837 47.9843 185.24 47.9843C184.507 47.9843 183.932 48.255 183.514 48.7965C183.1 49.3379 182.893 50.1082 182.893 51.1075V51.9495C182.893 52.893 183.09 53.6435 183.484 54.2008C183.878 54.7582 184.429 55.0369 185.138 55.0369C185.775 55.0369 186.263 54.8935 186.601 54.6069C186.944 54.3163 187.17 53.8127 187.282 53.0961H188.434ZM185.514 55.9087L185.443 56.2193C186.052 56.3267 186.356 56.6711 186.356 57.2524C186.356 57.6385 186.197 57.9431 185.879 58.166C185.56 58.3929 185.116 58.5064 184.547 58.5064L184.505 57.8674C184.82 57.8674 185.062 57.8157 185.234 57.7122C185.409 57.6087 185.496 57.4634 185.496 57.2762C185.496 57.1011 185.433 56.9717 185.305 56.8881C185.178 56.8045 184.919 56.7448 184.529 56.7089L184.72 55.9087H185.514ZM195.662 53.5857H192.02L191.201 55.855H190.019L193.339 47.1602H194.343L197.669 55.855H196.492L195.662 53.5857ZM192.366 52.6422H195.322L193.841 48.5755L192.366 52.6422ZM199.695 55.855V47.1602H202.15C202.906 47.1602 203.575 47.3274 204.156 47.6618C204.737 47.9963 205.185 48.472 205.5 49.0891C205.818 49.7061 205.98 50.4148 205.984 51.215V51.7704C205.984 52.5905 205.824 53.3091 205.506 53.9261C205.191 54.5432 204.739 55.017 204.15 55.3474C203.565 55.6778 202.882 55.847 202.102 55.855H199.695ZM200.842 48.1037V54.9174H202.048C202.932 54.9174 203.619 54.6427 204.108 54.0933C204.602 53.5439 204.849 52.7617 204.849 51.7465V51.2389C204.849 50.2516 204.616 49.4852 204.15 48.9398C203.688 48.3904 203.032 48.1117 202.18 48.1037H200.842ZM215.266 51.7883C215.266 52.6402 215.122 53.3847 214.836 54.0217C214.549 54.6547 214.143 55.1384 213.618 55.4728C213.092 55.8072 212.479 55.9744 211.778 55.9744C211.093 55.9744 210.486 55.8072 209.957 55.4728C209.427 55.1344 209.015 54.6547 208.721 54.0336C208.43 53.4086 208.281 52.686 208.273 51.8659V51.2389C208.273 50.4028 208.418 49.6643 208.709 49.0234C208.999 48.3824 209.409 47.8927 209.939 47.5543C210.472 47.212 211.082 47.0408 211.766 47.0408C212.463 47.0408 213.076 47.21 213.606 47.5484C214.139 47.8828 214.549 48.3705 214.836 49.0114C215.122 49.6484 215.266 50.3909 215.266 51.2389V51.7883ZM214.125 51.2269C214.125 50.1958 213.918 49.4056 213.504 48.8562C213.09 48.3028 212.511 48.0261 211.766 48.0261C211.042 48.0261 210.47 48.3028 210.052 48.8562C209.638 49.4056 209.425 50.1699 209.413 51.1493V51.7883C209.413 52.7875 209.622 53.5738 210.04 54.1471C210.462 54.7164 211.042 55.001 211.778 55.001C212.519 55.001 213.092 54.7323 213.498 54.1949C213.904 53.6534 214.113 52.8791 214.125 51.8719V51.2269ZM91.5502 69.855V61.1602H94.0045C94.7609 61.1602 95.4298 61.3274 96.011 61.6618C96.5923 61.9963 97.0401 62.472 97.3546 63.0891C97.6731 63.7061 97.8344 64.4148 97.8383 65.215V65.7704C97.8383 66.5905 97.6791 67.3091 97.3606 67.9261C97.0461 68.5432 96.5942 69.017 96.005 69.3474C95.4198 69.6778 94.7371 69.847 93.9568 69.855H91.5502ZM92.6967 62.1037V68.9174H93.903C94.7868 68.9174 95.4736 68.6427 95.9632 68.0933C96.4569 67.5439 96.7037 66.7617 96.7037 65.7465V65.2389C96.7037 64.2516 96.4708 63.4852 96.005 62.9398C95.5432 62.3904 94.8863 62.1117 94.0344 62.1037H92.6967ZM105.347 65.836H101.579V68.9174H105.956V69.855H100.432V61.1602H105.896V62.1037H101.579V64.8985H105.347V65.836ZM113.359 69.855H112.213V61.1602H113.359V69.855ZM122.266 69.855H121.113L116.736 63.1548V69.855H115.584V61.1602H116.736L121.125 67.8903V61.1602H122.266V69.855ZM131.113 65.7883C131.113 66.6402 130.969 67.3847 130.683 68.0217C130.396 68.6547 129.99 69.1384 129.465 69.4728C128.939 69.8072 128.326 69.9744 127.625 69.9744C126.941 69.9744 126.333 69.8072 125.804 69.4728C125.274 69.1344 124.862 68.6547 124.568 68.0336C124.277 67.4086 124.128 66.686 124.12 65.8659V65.2389C124.12 64.4028 124.265 63.6643 124.556 63.0234C124.846 62.3824 125.257 61.8927 125.786 61.5543C126.32 61.212 126.929 61.0408 127.613 61.0408C128.31 61.0408 128.923 61.21 129.453 61.5484C129.986 61.8828 130.396 62.3705 130.683 63.0114C130.969 63.6484 131.113 64.3909 131.113 65.2389V65.7883ZM129.972 65.2269C129.972 64.1958 129.765 63.4056 129.351 62.8562C128.937 62.3028 128.358 62.0261 127.613 62.0261C126.889 62.0261 126.318 62.3028 125.9 62.8562C125.485 63.4056 125.272 64.1699 125.261 65.1493V65.7883C125.261 66.7875 125.47 67.5738 125.888 68.1471C126.31 68.7164 126.889 69.001 127.625 69.001C128.366 69.001 128.939 68.7323 129.345 68.1949C129.751 67.6534 129.96 66.8791 129.972 65.8719V65.2269ZM135.702 68.3322L138.186 61.1602H139.44L136.215 69.855H135.2L131.982 61.1602H133.23L135.702 68.3322ZM145.08 67.5857H141.438L140.619 69.855H139.437L142.757 61.1602H143.761L147.087 69.855H145.91L145.08 67.5857ZM141.784 66.6422H144.74L143.259 62.5755L141.784 66.6422ZM154.704 67.0961C154.596 68.0157 154.256 68.7263 153.682 69.228C153.113 69.7256 152.355 69.9744 151.407 69.9744C150.38 69.9744 149.556 69.6062 148.935 68.8697C148.318 68.1331 148.009 67.1478 148.009 65.9137V65.0776C148.009 64.2695 148.153 63.5588 148.439 62.9457C148.73 62.3327 149.14 61.8629 149.669 61.5364C150.199 61.206 150.812 61.0408 151.509 61.0408C152.432 61.0408 153.173 61.2996 153.73 61.8171C154.288 62.3307 154.612 63.0433 154.704 63.955H153.551C153.451 63.2622 153.235 62.7606 152.9 62.4501C152.57 62.1396 152.106 61.9843 151.509 61.9843C150.776 61.9843 150.201 62.255 149.783 62.7965C149.369 63.3379 149.162 64.1082 149.162 65.1075V65.9495C149.162 66.893 149.359 67.6435 149.753 68.2008C150.147 68.7582 150.699 69.0369 151.407 69.0369C152.044 69.0369 152.532 68.8935 152.87 68.6069C153.213 68.3163 153.44 67.8127 153.551 67.0961H154.704ZM151.783 69.9087L151.712 70.2193C152.321 70.3267 152.625 70.6711 152.625 71.2524C152.625 71.6385 152.466 71.9431 152.148 72.166C151.829 72.3929 151.385 72.5064 150.816 72.5064L150.774 71.8674C151.089 71.8674 151.332 71.8157 151.503 71.7122C151.678 71.6087 151.765 71.4634 151.765 71.2762C151.765 71.1011 151.702 70.9717 151.574 70.8881C151.447 70.8045 151.188 70.7448 150.798 70.7089L150.989 69.9087H151.783ZM161.198 67.5857H157.555L156.737 69.855H155.554L158.875 61.1602H159.878L163.204 69.855H162.028L161.198 67.5857ZM157.901 66.6422H160.857L159.376 62.5755L157.901 66.6422ZM161.52 59.0224C161.52 59.4523 161.397 59.8007 161.15 60.0674C160.907 60.3341 160.602 60.4675 160.236 60.4675C160.073 60.4675 159.932 60.4476 159.812 60.4078C159.693 60.368 159.536 60.2864 159.34 60.1629C159.149 60.0395 159.01 59.9659 158.922 59.942C158.839 59.9141 158.741 59.9002 158.63 59.9002C158.467 59.9002 158.327 59.9639 158.212 60.0913C158.096 60.2147 158.039 60.3739 158.039 60.569L157.298 60.5272C157.298 60.1012 157.418 59.7489 157.656 59.4702C157.899 59.1916 158.206 59.0522 158.576 59.0522C158.715 59.0522 158.841 59.0721 158.952 59.1119C159.064 59.1517 159.215 59.2294 159.406 59.3448C159.597 59.4603 159.743 59.5359 159.842 59.5717C159.946 59.6076 160.059 59.6255 160.182 59.6255C160.354 59.6255 160.495 59.5578 160.606 59.4225C160.722 59.2871 160.78 59.1298 160.78 58.9507L161.52 59.0224ZM171.113 65.7883C171.113 66.6402 170.97 67.3847 170.684 68.0217C170.397 68.6547 169.991 69.1384 169.465 69.4728C168.94 69.8072 168.327 69.9744 167.626 69.9744C166.941 69.9744 166.334 69.8072 165.805 69.4728C165.275 69.1344 164.863 68.6547 164.569 68.0336C164.278 67.4086 164.129 66.686 164.121 65.8659V65.2389C164.121 64.4028 164.266 63.6643 164.557 63.0234C164.847 62.3824 165.257 61.8927 165.787 61.5543C166.32 61.212 166.929 61.0408 167.614 61.0408C168.311 61.0408 168.924 61.21 169.453 61.5484C169.987 61.8828 170.397 62.3705 170.684 63.0114C170.97 63.6484 171.113 64.3909 171.113 65.2389V65.7883ZM169.973 65.2269C169.973 64.1958 169.766 63.4056 169.352 62.8562C168.938 62.3028 168.359 62.0261 167.614 62.0261C166.89 62.0261 166.318 62.3028 165.9 62.8562C165.486 63.4056 165.273 64.1699 165.261 65.1493V65.7883C165.261 66.7875 165.47 67.5738 165.888 68.1471C166.31 68.7164 166.89 69.001 167.626 69.001C168.367 69.001 168.94 68.7323 169.346 68.1949C169.752 67.6534 169.961 66.8791 169.973 65.8719V65.2269ZM97.5577 76.1037H94.7629V83.855H93.6223V76.1037H90.8336V75.1602H97.5577V76.1037ZM103.885 79.836H100.116V82.9174H104.494V83.855H98.9699V75.1602H104.434V76.1037H100.116V78.8985H103.885V79.836ZM112.439 81.0961C112.331 82.0157 111.991 82.7263 111.418 83.228C110.848 83.7256 110.09 83.9744 109.142 83.9744C108.115 83.9744 107.291 83.6062 106.67 82.8697C106.053 82.1331 105.745 81.1478 105.745 79.9137V79.0776C105.745 78.2695 105.888 77.5588 106.175 76.9457C106.465 76.3327 106.875 75.8629 107.405 75.5364C107.934 75.206 108.547 75.0408 109.244 75.0408C110.168 75.0408 110.908 75.2996 111.465 75.8171C112.023 76.3307 112.347 77.0433 112.439 77.955H111.286C111.187 77.2622 110.97 76.7606 110.635 76.4501C110.305 76.1396 109.841 75.9843 109.244 75.9843C108.511 75.9843 107.936 76.255 107.518 76.7965C107.104 77.3379 106.897 78.1082 106.897 79.1075V79.9495C106.897 80.893 107.094 81.6435 107.488 82.2008C107.882 82.7582 108.434 83.0369 109.142 83.0369C109.779 83.0369 110.267 82.8935 110.606 82.6069C110.948 82.3163 111.175 81.8127 111.286 81.0961H112.439ZM120.814 83.855H119.661L115.284 77.1548V83.855H114.132V75.1602H115.284L119.673 81.8903V75.1602H120.814V83.855ZM129.661 79.7883C129.661 80.6402 129.518 81.3847 129.231 82.0217C128.944 82.6547 128.538 83.1384 128.013 83.4728C127.487 83.8072 126.874 83.9744 126.173 83.9744C125.489 83.9744 124.882 83.8072 124.352 83.4728C123.823 83.1344 123.411 82.6547 123.116 82.0336C122.825 81.4086 122.676 80.686 122.668 79.8659V79.2389C122.668 78.4028 122.813 77.6643 123.104 77.0234C123.395 76.3824 123.805 75.8927 124.334 75.5543C124.868 75.212 125.477 75.0408 126.162 75.0408C126.858 75.0408 127.471 75.21 128.001 75.5484C128.534 75.8828 128.944 76.3705 129.231 77.0114C129.518 77.6484 129.661 78.3909 129.661 79.2389V79.7883ZM128.52 79.2269C128.52 78.1958 128.313 77.4056 127.899 76.8562C127.485 76.3028 126.906 76.0261 126.162 76.0261C125.437 76.0261 124.866 76.3028 124.448 76.8562C124.034 77.4056 123.821 78.1699 123.809 79.1493V79.7883C123.809 80.7875 124.018 81.5738 124.436 82.1471C124.858 82.7164 125.437 83.001 126.173 83.001C126.914 83.001 127.487 82.7323 127.893 82.1949C128.299 81.6534 128.508 80.8791 128.52 79.8719V79.2269ZM132.656 82.9174H136.776V83.855H131.503V75.1602H132.656V82.9174ZM144.5 79.7883C144.5 80.6402 144.357 81.3847 144.07 82.0217C143.784 82.6547 143.378 83.1384 142.852 83.4728C142.327 83.8072 141.714 83.9744 141.013 83.9744C140.328 83.9744 139.721 83.8072 139.192 83.4728C138.662 83.1344 138.25 82.6547 137.955 82.0336C137.665 81.4086 137.515 80.686 137.507 79.8659V79.2389C137.507 78.4028 137.653 77.6643 137.943 77.0234C138.234 76.3824 138.644 75.8927 139.174 75.5543C139.707 75.212 140.316 75.0408 141.001 75.0408C141.698 75.0408 142.311 75.21 142.84 75.5484C143.374 75.8828 143.784 76.3705 144.07 77.0114C144.357 77.6484 144.5 78.3909 144.5 79.2389V79.7883ZM143.36 79.2269C143.36 78.1958 143.153 77.4056 142.739 76.8562C142.325 76.3028 141.745 76.0261 141.001 76.0261C140.276 76.0261 139.705 76.3028 139.287 76.8562C138.873 77.4056 138.66 78.1699 138.648 79.1493V79.7883C138.648 80.7875 138.857 81.5738 139.275 82.1471C139.697 82.7164 140.276 83.001 141.013 83.001C141.753 83.001 142.327 82.7323 142.733 82.1949C143.139 81.6534 143.348 80.8791 143.36 79.8719V79.2269ZM141.562 72.8193H142.9L141.3 74.575H140.41L141.562 72.8193ZM152.762 82.7144C152.467 83.1364 152.055 83.4529 151.526 83.6639C151 83.8709 150.387 83.9744 149.687 83.9744C148.978 83.9744 148.349 83.8092 147.8 83.4788C147.25 83.1444 146.824 82.6706 146.522 82.0575C146.223 81.4444 146.07 80.7338 146.062 79.9256V79.1672C146.062 77.8574 146.366 76.8422 146.975 76.1217C147.589 75.4011 148.448 75.0408 149.555 75.0408C150.463 75.0408 151.193 75.2737 151.747 75.7395C152.3 76.2013 152.639 76.8582 152.762 77.7101H151.615C151.4 76.5596 150.716 75.9843 149.561 75.9843C148.793 75.9843 148.21 76.255 147.812 76.7965C147.417 77.3339 147.218 78.1142 147.214 79.1374V79.848C147.214 80.8234 147.437 81.5997 147.883 82.1769C148.329 82.7502 148.932 83.0369 149.693 83.0369C150.123 83.0369 150.499 82.9891 150.821 82.8935C151.144 82.798 151.41 82.6368 151.621 82.4098V80.4571H149.609V79.5255H152.762V82.7144ZM156.031 83.855H154.885V75.1602H156.031V83.855ZM164.651 81.0961C164.544 82.0157 164.204 82.7263 163.63 83.228C163.061 83.7256 162.303 83.9744 161.355 83.9744C160.328 83.9744 159.504 83.6062 158.883 82.8697C158.266 82.1331 157.957 81.1478 157.957 79.9137V79.0776C157.957 78.2695 158.1 77.5588 158.387 76.9457C158.678 76.3327 159.088 75.8629 159.617 75.5364C160.147 75.206 160.76 75.0408 161.457 75.0408C162.38 75.0408 163.121 75.2996 163.678 75.8171C164.235 76.3307 164.56 77.0433 164.651 77.955H163.499C163.399 77.2622 163.182 76.7606 162.848 76.4501C162.518 76.1396 162.054 75.9843 161.457 75.9843C160.724 75.9843 160.149 76.255 159.731 76.7965C159.317 77.3379 159.11 78.1082 159.11 79.1075V79.9495C159.11 80.893 159.307 81.6435 159.701 82.2008C160.095 82.7582 160.646 83.0369 161.355 83.0369C161.992 83.0369 162.48 82.8935 162.818 82.6069C163.16 82.3163 163.387 81.8127 163.499 81.0961H164.651ZM171.145 81.5857H167.503L166.685 83.855H165.502L168.823 75.1602H169.826L173.152 83.855H171.976L171.145 81.5857ZM167.849 80.6422H170.805L169.324 76.5755L167.849 80.6422Z" fill="white"/>
<path d="M45.2862 49.9854C44.4036 49.9842 43.5367 49.7496 42.7714 49.305L28.4191 41.059C27.639 40.6102 26.9897 39.9613 26.537 39.1778C26.0842 38.3942 25.8439 37.5038 25.8404 36.5964C25.8368 35.689 26.0702 34.7967 26.5168 34.0096C26.9634 33.2225 27.6076 32.5684 28.3842 32.1134L42.7365 23.7134C43.5068 23.2564 44.3835 23.0149 45.2767 23.0137C45.9481 23.0133 46.6129 23.1465 47.2333 23.4058C47.8537 23.6651 48.4175 24.0454 48.8925 24.525C49.3675 25.0046 49.7444 25.574 50.0017 26.2008C50.259 26.8277 50.3917 27.4996 50.3921 28.1782V44.8209C50.3913 46.1898 49.8531 47.5025 48.8959 48.4707C47.9386 49.439 46.6404 49.9837 45.2862 49.9854ZM45.2862 25.6521C44.8502 25.6537 44.4226 25.7734 44.0479 25.9988L29.6956 34.3956C29.3157 34.6164 29.0001 34.9346 28.7806 35.3181C28.5612 35.7016 28.4456 36.1368 28.4456 36.5798C28.4456 37.0228 28.5612 37.458 28.7806 37.8415C29.0001 38.225 29.3157 38.5432 29.6956 38.7641L44.0479 47.01C44.4215 47.2239 44.8442 47.3346 45.2735 47.331C45.9355 47.3293 46.5698 47.0625 47.0376 46.589C47.5054 46.1156 47.7685 45.474 47.7693 44.8049V28.1782C47.7677 27.511 47.5056 26.8714 47.04 26.3984C46.5745 25.9254 45.9431 25.6572 45.2831 25.6521H45.2862Z" fill="white"/>
<path d="M35.9574 49.9854C34.6032 49.9837 33.305 49.439 32.3478 48.4707C31.3905 47.5025 30.8524 46.1898 30.8516 44.8209V28.1782C30.8524 26.8087 31.3909 25.4956 32.3489 24.5273C33.3068 23.5589 34.6059 23.0145 35.9606 23.0137C36.8538 23.0149 37.7305 23.2564 38.5008 23.7134L52.8531 32.1134C53.6306 32.5678 54.2755 33.2216 54.7228 34.0088C55.17 34.796 55.4037 35.6887 55.4001 36.5965C55.3966 37.5042 55.156 38.395 54.7026 39.1786C54.2492 39.9622 53.5992 40.6109 52.8182 41.059L38.4659 49.305C37.7025 49.7485 36.8379 49.983 35.9574 49.9854ZM35.9574 25.6521C35.2952 25.6538 34.6605 25.9205 34.1922 26.3939C33.724 26.8672 33.4601 27.5088 33.4585 28.1782V44.8209C33.4593 45.4901 33.7224 46.1316 34.1902 46.6051C34.658 47.0785 35.2923 47.3453 35.9542 47.347C36.3836 47.3507 36.8063 47.24 37.1799 47.026L51.5322 38.7801C51.9129 38.5599 52.2293 38.2419 52.4494 37.8584C52.6695 37.4748 52.7854 37.0393 52.7854 36.5959C52.7854 36.1524 52.6695 35.7169 52.4494 35.3333C52.2293 34.9498 51.9129 34.6318 51.5322 34.4116L37.199 25.9988C36.8242 25.7734 36.3966 25.6537 35.9606 25.6521H35.9574Z" fill="white"/>
<path d="M57.9205 72.9999C56.7313 72.9946 55.5651 72.6688 54.542 72.0562L53.1671 71.2377L3.3151 42.6065C2.30047 42.013 1.45808 41.1603 0.872439 40.1338C0.286801 39.1073 -0.0214844 37.9432 -0.0214844 36.7582C-0.0214844 35.5733 0.286801 34.4092 0.872439 33.3827C1.45808 32.3562 2.30047 31.5035 3.3151 30.91L53.1131 1.78771L54.5547 0.933907C55.5694 0.328033 56.7248 0.00482825 57.9033 -0.00279176C59.0817 -0.0104118 60.2412 0.297825 61.2635 0.890528C62.2857 1.48323 63.1344 2.33922 63.7229 3.37133C64.3115 4.40344 64.6189 5.57478 64.614 6.76607V66.2337C64.6114 68.0274 63.9054 69.7469 62.6507 71.0153C61.396 72.2836 59.6949 72.9973 57.9205 72.9999ZM57.9205 2.88866C57.2414 2.89066 56.5755 3.07808 55.9931 3.43111L54.5515 4.28492L4.76303 33.4072C4.17854 33.7463 3.69291 34.2353 3.3552 34.8248C3.01749 35.4143 2.83965 36.0835 2.83965 36.7647C2.83965 37.4459 3.01749 38.115 3.3552 38.7045C3.69291 39.2941 4.17854 39.783 4.76303 40.1221L54.615 68.7662L55.9835 69.5782C56.5673 69.9338 57.2357 70.1224 57.9173 70.1239C58.9355 70.1214 59.9113 69.7113 60.6313 68.9835C61.3513 68.2557 61.7569 67.2693 61.7594 66.2401V6.79175C61.7586 5.76073 61.3545 4.77184 60.6354 4.04069C59.9163 3.30954 58.9404 2.89544 57.9205 2.88866Z" fill="white"/>
<path d="M23.3224 73.0001C21.5482 72.9976 19.8475 72.2838 18.5933 71.0153C17.3391 69.7469 16.6338 68.0273 16.6321 66.2339V6.76633C16.6272 5.57415 16.9352 4.40199 17.5247 3.36941C18.1142 2.33683 18.9641 1.48077 19.9877 0.888544C21.0113 0.296314 22.1719 -0.0108963 23.3512 -0.00175492C24.5306 0.00738649 25.6864 0.332553 26.7009 0.94058L28.079 1.76228L77.9309 30.3935C78.9489 30.9839 79.7946 31.8354 80.3828 32.8619C80.971 33.8885 81.2807 35.0538 81.2807 36.2401C81.2807 37.4264 80.971 38.5917 80.3828 39.6183C79.7946 40.6449 78.9489 41.4964 77.9309 42.0867L28.1298 71.2091L26.6882 72.0629C25.6685 72.6719 24.5068 72.9954 23.3224 73.0001ZM23.3256 2.88892C22.3079 2.8906 21.3323 3.29935 20.6118 4.02587C19.8913 4.75238 19.4845 5.73761 19.4803 6.76633V66.205C19.4786 67.2383 19.8819 68.2301 20.602 68.9634C21.3221 69.6967 22.3003 70.1118 23.3224 70.1177C24.0009 70.1147 24.6663 69.9285 25.2498 69.5785L26.6914 68.7247L76.4735 39.5927C77.0565 39.2532 77.5407 38.7645 77.8774 38.1756C78.2141 37.5868 78.3913 36.9186 78.3913 36.2385C78.3913 35.5584 78.2141 34.8903 77.8774 34.3014C77.5407 33.7126 77.0565 33.2238 76.4735 32.8843L26.6215 4.24023L25.2498 3.42495C24.6673 3.07574 24.0028 2.89065 23.3256 2.88892Z" fill="white"/>
<path d="M40.6213 70.7017C33.9263 70.7056 27.3807 68.7017 21.8129 64.9437C16.245 61.1856 11.9052 55.8423 9.34264 49.5901C6.78008 43.3378 6.10998 36.4576 7.41716 29.8201C8.72434 23.1827 11.95 17.0865 16.686 12.303C23.0508 5.96597 31.6358 2.4292 40.5694 2.46363C49.503 2.49806 58.061 6.10091 64.3779 12.4868C70.6947 18.8727 74.2583 27.5239 74.2918 36.5546C74.3252 45.5853 70.8259 54.2633 64.5566 60.6968C61.4195 63.8814 57.6888 66.4055 53.5803 68.1228C49.4718 69.8401 45.0671 70.7167 40.6213 70.7017ZM40.6213 9.07397C34.3418 9.07791 28.2579 11.2827 23.4062 15.3127C18.5546 19.3427 15.2353 24.9485 14.0141 31.175C12.7928 37.4015 13.745 43.8635 16.7086 49.4598C19.6721 55.0562 24.4636 59.4407 30.2665 61.8662C36.0695 64.2918 42.525 64.6084 48.533 62.762C54.541 60.9157 59.7298 57.0206 63.2153 51.7406C66.7008 46.4605 68.2674 40.1221 67.6481 33.8053C67.0288 27.4885 64.262 21.5842 59.819 17.0984C57.304 14.542 54.3121 12.5155 51.0167 11.1364C47.7213 9.75726 44.1879 9.05298 40.6213 9.06434V9.07397Z" fill="white"/>
</g>
<defs>
<clipPath id="clip0">
<rect width="222" height="73" fill="white"/>
</clipPath>
</defs>
</svg>
