<svg width="219" height="54" viewBox="0 0 219 54" fill="none" xmlns="http://www.w3.org/2000/svg">
<path d="M12.052 48.698C11.828 48.922 11.52 49.146 11.128 49.37C10.7453 49.5847 10.302 49.7667 9.798 49.916C9.294 50.0653 8.75733 50.14 8.188 50.14C7.47867 50.14 6.816 50.0233 6.2 49.79C5.584 49.5473 5.04267 49.2067 4.576 48.768C4.11867 48.3293 3.75933 47.802 3.498 47.186C3.246 46.5607 3.12 45.8653 3.12 45.1C3.12 44.3813 3.25533 43.7187 3.526 43.112C3.79667 42.5053 4.17 41.978 4.646 41.53C5.13133 41.082 5.682 40.7367 6.298 40.494C6.914 40.242 7.56733 40.116 8.258 40.116C8.83667 40.116 9.378 40.2 9.882 40.368C10.3953 40.5267 10.848 40.732 11.24 40.984C11.6413 41.236 11.9587 41.502 12.192 41.782L11.226 42.93C10.8153 42.5473 10.358 42.2347 9.854 41.992C9.35933 41.74 8.80867 41.614 8.202 41.614C7.60467 41.614 7.03533 41.754 6.494 42.034C5.95267 42.314 5.50933 42.7153 5.164 43.238C4.828 43.7607 4.66 44.3813 4.66 45.1C4.66 45.884 4.83267 46.5373 5.178 47.06C5.53267 47.5827 5.99 47.9793 6.55 48.25C7.11933 48.5113 7.73067 48.642 8.384 48.642C9.04667 48.642 9.62067 48.516 10.106 48.264C10.5913 48.0027 10.9927 47.732 11.31 47.452L12.052 48.698ZM22.2693 50L21.2613 47.62H16.5013L15.4793 50H13.9253L18.1113 40.2H19.7493L23.9073 50H22.2693ZM18.1253 43.812L17.1173 46.164H20.6453L19.6093 43.756C19.4879 43.448 19.3666 43.1353 19.2453 42.818C19.1239 42.4913 19.0026 42.1553 18.8813 41.81C18.7506 42.1647 18.6246 42.51 18.5033 42.846C18.3819 43.182 18.2559 43.504 18.1253 43.812ZM34.7412 40.186V45.87C34.7412 46.682 34.5545 47.4053 34.1812 48.04C33.8172 48.6747 33.3085 49.174 32.6552 49.538C32.0019 49.902 31.2505 50.084 30.4012 50.084C29.5425 50.084 28.7865 49.902 28.1332 49.538C27.4892 49.174 26.9805 48.6747 26.6072 48.04C26.2432 47.4053 26.0612 46.682 26.0612 45.87V40.186H27.5732V45.772C27.5732 46.3227 27.6992 46.8127 27.9512 47.242C28.2125 47.6713 28.5579 48.012 28.9872 48.264C29.4165 48.5067 29.8879 48.628 30.4012 48.628C30.9332 48.628 31.4185 48.5067 31.8572 48.264C32.2959 48.012 32.6459 47.6713 32.9072 47.242C33.1685 46.8127 33.2992 46.3227 33.2992 45.772V40.186H34.7412ZM38.4447 47.018C38.8927 47.578 39.3641 48.012 39.8587 48.32C40.3534 48.628 40.9741 48.782 41.7207 48.782C42.1034 48.782 42.4721 48.7307 42.8267 48.628C43.1814 48.516 43.4707 48.3573 43.6947 48.152C43.9187 47.9373 44.0307 47.6713 44.0307 47.354C44.0307 46.8873 43.7974 46.5467 43.3307 46.332C42.8641 46.108 42.2107 45.9307 41.3707 45.8C40.3161 45.6227 39.4761 45.31 38.8507 44.862C38.2347 44.4047 37.9267 43.7373 37.9267 42.86C37.9267 42.2813 38.0994 41.782 38.4447 41.362C38.7901 40.942 39.2474 40.62 39.8167 40.396C40.3861 40.172 41.0114 40.06 41.6927 40.06C42.5514 40.06 43.2934 40.2093 43.9187 40.508C44.5534 40.8067 45.0481 41.2313 45.4027 41.782L44.3667 42.86C44.0681 42.4307 43.6901 42.0853 43.2327 41.824C42.7847 41.5533 42.2574 41.418 41.6507 41.418C41.0441 41.418 40.5307 41.5393 40.1107 41.782C39.7001 42.0153 39.4947 42.3467 39.4947 42.776C39.4947 43.2707 39.7141 43.6253 40.1527 43.84C40.5914 44.0547 41.1747 44.2227 41.9027 44.344C42.3787 44.4187 42.8361 44.5213 43.2747 44.652C43.7134 44.7827 44.1054 44.9553 44.4507 45.17C44.8054 45.3753 45.0854 45.632 45.2907 45.94C45.4961 46.2387 45.5987 46.6073 45.5987 47.046C45.5987 47.6713 45.4354 48.2173 45.1087 48.684C44.7914 49.1413 44.3341 49.5007 43.7367 49.762C43.1394 50.014 42.4347 50.14 41.6227 50.14C40.7641 50.14 39.9847 49.9907 39.2847 49.692C38.5847 49.3933 37.9687 48.908 37.4367 48.236L38.4447 47.018ZM55.8474 50L54.8394 47.62H50.0794L49.0574 50H47.5034L51.6894 40.2H53.3274L57.4854 50H55.8474ZM51.7034 43.812L50.6954 46.164H54.2234L53.1874 43.756C53.0661 43.448 52.9447 43.1353 52.8234 42.818C52.7021 42.4913 52.5807 42.1553 52.4594 41.81C52.3287 42.1647 52.2027 42.51 52.0814 42.846C51.9601 43.182 51.8341 43.504 51.7034 43.812ZM69.731 40.2C70.795 40.2 71.5977 40.41 72.139 40.83C72.6803 41.25 72.951 41.8613 72.951 42.664C72.951 43.1027 72.8343 43.4993 72.601 43.854C72.3677 44.1993 72.027 44.4653 71.579 44.652C71.915 44.764 72.223 44.9227 72.503 45.128C72.7923 45.3333 73.0257 45.5993 73.203 45.926C73.3803 46.2527 73.469 46.6493 73.469 47.116C73.469 47.6853 73.3617 48.1567 73.147 48.53C72.9417 48.9033 72.6663 49.1973 72.321 49.412C71.9757 49.6267 71.5977 49.7807 71.187 49.874C70.7763 49.958 70.3657 50 69.955 50H65.139V40.2H69.731ZM69.619 41.656H66.651V44.232H69.787C70.2163 44.2227 70.5943 44.106 70.921 43.882C71.2477 43.658 71.411 43.3407 71.411 42.93C71.411 42.4727 71.2383 42.146 70.893 41.95C70.5477 41.754 70.123 41.656 69.619 41.656ZM69.857 45.688H66.651V48.544H69.927C70.515 48.544 70.9957 48.4273 71.369 48.194C71.7423 47.9513 71.929 47.5827 71.929 47.088C71.929 46.7333 71.8217 46.4533 71.607 46.248C71.3923 46.0427 71.1263 45.898 70.809 45.814C70.4917 45.73 70.1743 45.688 69.857 45.688ZM83.656 50L82.648 47.62H77.888L76.866 50H75.312L79.498 40.2H81.136L85.294 50H83.656ZM79.512 43.812L78.504 46.164H82.032L80.996 43.756C80.8747 43.448 80.7533 43.1353 80.632 42.818C80.5107 42.4913 80.3893 42.1553 80.268 41.81C80.1373 42.1647 80.0113 42.51 79.89 42.846C79.7687 43.182 79.6427 43.504 79.512 43.812ZM80.1 39.472L79.624 38.758L81.626 37.008L82.536 38.156L80.1 39.472ZM88.1693 47.018C88.6173 47.578 89.0887 48.012 89.5833 48.32C90.078 48.628 90.6987 48.782 91.4453 48.782C91.828 48.782 92.1967 48.7307 92.5513 48.628C92.906 48.516 93.1953 48.3573 93.4193 48.152C93.6433 47.9373 93.7553 47.6713 93.7553 47.354C93.7553 46.8873 93.522 46.5467 93.0553 46.332C92.5887 46.108 91.9353 45.9307 91.0953 45.8C90.0407 45.6227 89.2007 45.31 88.5753 44.862C87.9593 44.4047 87.6513 43.7373 87.6513 42.86C87.6513 42.2813 87.824 41.782 88.1693 41.362C88.5147 40.942 88.972 40.62 89.5413 40.396C90.1107 40.172 90.736 40.06 91.4173 40.06C92.276 40.06 93.018 40.2093 93.6433 40.508C94.278 40.8067 94.7727 41.2313 95.1273 41.782L94.0913 42.86C93.7927 42.4307 93.4147 42.0853 92.9573 41.824C92.5093 41.5533 91.982 41.418 91.3753 41.418C90.7687 41.418 90.2553 41.5393 89.8353 41.782C89.4247 42.0153 89.2193 42.3467 89.2193 42.776C89.2193 43.2707 89.4387 43.6253 89.8773 43.84C90.316 44.0547 90.8993 44.2227 91.6273 44.344C92.1033 44.4187 92.5607 44.5213 92.9993 44.652C93.438 44.7827 93.83 44.9553 94.1753 45.17C94.53 45.3753 94.81 45.632 95.0153 45.94C95.2207 46.2387 95.3233 46.6073 95.3233 47.046C95.3233 47.6713 95.16 48.2173 94.8333 48.684C94.516 49.1413 94.0587 49.5007 93.4613 49.762C92.864 50.014 92.1593 50.14 91.3473 50.14C90.4887 50.14 89.7093 49.9907 89.0093 49.692C88.3093 49.3933 87.6933 48.908 87.1613 48.236L88.1693 47.018ZM103.626 50H98.166V48.558H100.14V41.642H98.166V40.2H103.626V41.642H101.652V48.558H103.626V50ZM115.138 48.698C114.914 48.922 114.606 49.146 114.214 49.37C113.831 49.5847 113.388 49.7667 112.884 49.916C112.38 50.0653 111.843 50.14 111.274 50.14C110.565 50.14 109.902 50.0233 109.286 49.79C108.67 49.5473 108.129 49.2067 107.662 48.768C107.205 48.3293 106.845 47.802 106.584 47.186C106.332 46.5607 106.206 45.8653 106.206 45.1C106.206 44.3813 106.341 43.7187 106.612 43.112C106.883 42.5053 107.256 41.978 107.732 41.53C108.217 41.082 108.768 40.7367 109.384 40.494C110 40.242 110.653 40.116 111.344 40.116C111.923 40.116 112.464 40.2 112.968 40.368C113.481 40.5267 113.934 40.732 114.326 40.984C114.727 41.236 115.045 41.502 115.278 41.782L114.312 42.93C113.901 42.5473 113.444 42.2347 112.94 41.992C112.445 41.74 111.895 41.614 111.288 41.614C110.691 41.614 110.121 41.754 109.58 42.034C109.039 42.314 108.595 42.7153 108.25 43.238C107.914 43.7607 107.746 44.3813 107.746 45.1C107.746 45.884 107.919 46.5373 108.264 47.06C108.619 47.5827 109.076 47.9793 109.636 48.25C110.205 48.5113 110.817 48.642 111.47 48.642C112.133 48.642 112.707 48.516 113.192 48.264C113.677 48.0027 114.079 47.732 114.396 47.452L115.138 48.698ZM125.355 50L124.347 47.62H119.587L118.565 50H117.011L121.197 40.2H122.835L126.993 50H125.355ZM121.211 43.812L120.203 46.164H123.731L122.695 43.756C122.574 43.448 122.453 43.1353 122.331 42.818C122.21 42.4913 122.089 42.1553 121.967 41.81C121.837 42.1647 121.711 42.51 121.589 42.846C121.468 43.182 121.342 43.504 121.211 43.812ZM138.931 40.2C139.743 40.2 140.457 40.3307 141.073 40.592C141.689 40.844 142.207 41.1987 142.627 41.656C143.047 42.104 143.359 42.6267 143.565 43.224C143.779 43.812 143.887 44.4373 143.887 45.1C143.887 45.996 143.7 46.8173 143.327 47.564C142.953 48.3013 142.398 48.894 141.661 49.342C140.923 49.7807 140.013 50 138.931 50H134.647V40.2H138.931ZM138.861 48.544C139.673 48.544 140.331 48.39 140.835 48.082C141.348 47.7647 141.721 47.3493 141.955 46.836C142.197 46.3133 142.319 45.7347 142.319 45.1C142.319 44.484 142.197 43.9147 141.955 43.392C141.721 42.8693 141.348 42.4493 140.835 42.132C140.321 41.8147 139.663 41.656 138.861 41.656H136.159V48.544H138.861ZM156.628 45.1C156.628 45.8093 156.497 46.472 156.236 47.088C155.984 47.6947 155.62 48.2267 155.144 48.684C154.677 49.1413 154.122 49.5007 153.478 49.762C152.843 50.014 152.143 50.14 151.378 50.14C150.612 50.14 149.908 50.014 149.264 49.762C148.62 49.5007 148.064 49.1413 147.598 48.684C147.131 48.2267 146.767 47.6947 146.506 47.088C146.254 46.472 146.128 45.8093 146.128 45.1C146.128 44.3907 146.254 43.7327 146.506 43.126C146.767 42.51 147.131 41.9733 147.598 41.516C148.064 41.0587 148.62 40.704 149.264 40.452C149.908 40.1907 150.612 40.06 151.378 40.06C152.143 40.06 152.843 40.1907 153.478 40.452C154.122 40.704 154.677 41.0587 155.144 41.516C155.62 41.9733 155.984 42.51 156.236 43.126C156.497 43.7327 156.628 44.3907 156.628 45.1ZM155.088 45.1C155.088 44.4187 154.929 43.812 154.612 43.28C154.294 42.7387 153.856 42.314 153.296 42.006C152.736 41.6887 152.096 41.53 151.378 41.53C150.64 41.53 149.992 41.6887 149.432 42.006C148.881 42.314 148.447 42.7387 148.13 43.28C147.822 43.812 147.668 44.4187 147.668 45.1C147.668 45.7813 147.822 46.3927 148.13 46.934C148.447 47.466 148.881 47.8907 149.432 48.208C149.992 48.516 150.64 48.67 151.378 48.67C152.096 48.67 152.736 48.516 153.296 48.208C153.856 47.8907 154.294 47.4613 154.612 46.92C154.929 46.3787 155.088 45.772 155.088 45.1ZM174.442 45.1C174.442 45.8093 174.312 46.472 174.05 47.088C173.798 47.6947 173.434 48.2267 172.958 48.684C172.492 49.1413 171.936 49.5007 171.292 49.762C170.658 50.014 169.958 50.14 169.192 50.14C168.427 50.14 167.722 50.014 167.078 49.762C166.434 49.5007 165.879 49.1413 165.412 48.684C164.946 48.2267 164.582 47.6947 164.32 47.088C164.068 46.472 163.942 45.8093 163.942 45.1C163.942 44.3907 164.068 43.7327 164.32 43.126C164.582 42.51 164.946 41.9733 165.412 41.516C165.879 41.0587 166.434 40.704 167.078 40.452C167.722 40.1907 168.427 40.06 169.192 40.06C169.958 40.06 170.658 40.1907 171.292 40.452C171.936 40.704 172.492 41.0587 172.958 41.516C173.434 41.9733 173.798 42.51 174.05 43.126C174.312 43.7327 174.442 44.3907 174.442 45.1ZM172.902 45.1C172.902 44.4187 172.744 43.812 172.426 43.28C172.109 42.7387 171.67 42.314 171.11 42.006C170.55 41.6887 169.911 41.53 169.192 41.53C168.455 41.53 167.806 41.6887 167.246 42.006C166.696 42.314 166.262 42.7387 165.944 43.28C165.636 43.812 165.482 44.4187 165.482 45.1C165.482 45.7813 165.636 46.3927 165.944 46.934C166.262 47.466 166.696 47.8907 167.246 48.208C167.806 48.516 168.455 48.67 169.192 48.67C169.911 48.67 170.55 48.516 171.11 48.208C171.67 47.8907 172.109 47.4613 172.426 46.92C172.744 46.3787 172.902 45.772 172.902 45.1ZM168.926 39.472L168.45 38.758L170.452 37.008L171.362 38.156L168.926 39.472ZM182.004 40.2C183.068 40.2 183.871 40.41 184.412 40.83C184.954 41.25 185.224 41.8613 185.224 42.664C185.224 43.1027 185.108 43.4993 184.874 43.854C184.641 44.1993 184.3 44.4653 183.852 44.652C184.188 44.764 184.496 44.9227 184.776 45.128C185.066 45.3333 185.299 45.5993 185.476 45.926C185.654 46.2527 185.742 46.6493 185.742 47.116C185.742 47.6853 185.635 48.1567 185.42 48.53C185.215 48.9033 184.94 49.1973 184.594 49.412C184.249 49.6267 183.871 49.7807 183.46 49.874C183.05 49.958 182.639 50 182.228 50H177.412V40.2H182.004ZM181.892 41.656H178.924V44.232H182.06C182.49 44.2227 182.868 44.106 183.194 43.882C183.521 43.658 183.684 43.3407 183.684 42.93C183.684 42.4727 183.512 42.146 183.166 41.95C182.821 41.754 182.396 41.656 181.892 41.656ZM182.13 45.688H178.924V48.544H182.2C182.788 48.544 183.269 48.4273 183.642 48.194C184.016 47.9513 184.202 47.5827 184.202 47.088C184.202 46.7333 184.095 46.4533 183.88 46.248C183.666 46.0427 183.4 45.898 183.082 45.814C182.765 45.73 182.448 45.688 182.13 45.688ZM193.983 50H188.523V48.558H190.497V41.642H188.523V40.2H193.983V41.642H192.009V48.558H193.983V50ZM199.638 50V41.656H196.502V40.2H204.37V41.656H201.15V50H199.638ZM216.415 45.1C216.415 45.8093 216.284 46.472 216.023 47.088C215.771 47.6947 215.407 48.2267 214.931 48.684C214.464 49.1413 213.909 49.5007 213.265 49.762C212.63 50.014 211.93 50.14 211.165 50.14C210.4 50.14 209.695 50.014 209.051 49.762C208.407 49.5007 207.852 49.1413 207.385 48.684C206.918 48.2267 206.554 47.6947 206.293 47.088C206.041 46.472 205.915 45.8093 205.915 45.1C205.915 44.3907 206.041 43.7327 206.293 43.126C206.554 42.51 206.918 41.9733 207.385 41.516C207.852 41.0587 208.407 40.704 209.051 40.452C209.695 40.1907 210.4 40.06 211.165 40.06C211.93 40.06 212.63 40.1907 213.265 40.452C213.909 40.704 214.464 41.0587 214.931 41.516C215.407 41.9733 215.771 42.51 216.023 43.126C216.284 43.7327 216.415 44.3907 216.415 45.1ZM214.875 45.1C214.875 44.4187 214.716 43.812 214.399 43.28C214.082 42.7387 213.643 42.314 213.083 42.006C212.523 41.6887 211.884 41.53 211.165 41.53C210.428 41.53 209.779 41.6887 209.219 42.006C208.668 42.314 208.234 42.7387 207.917 43.28C207.609 43.812 207.455 44.4187 207.455 45.1C207.455 45.7813 207.609 46.3927 207.917 46.934C208.234 47.466 208.668 47.8907 209.219 48.208C209.779 48.516 210.428 48.67 211.165 48.67C211.884 48.67 212.523 48.516 213.083 48.208C213.643 47.8907 214.082 47.4613 214.399 46.92C214.716 46.3787 214.875 45.772 214.875 45.1Z" fill="#3C9AE4"/>
<path d="M6.96 8.7V17.429H18.705V8.7H21.837V29H18.705V20.445H6.96V29H3.828V8.7H6.96ZM44.4219 29L42.3339 24.07H32.4739L30.3569 29H27.1379L35.8089 8.7H39.2019L47.8149 29H44.4219ZM35.8379 16.182L33.7499 21.054H41.0579L38.9119 16.066C38.6606 15.428 38.4092 14.7803 38.1579 14.123C37.9066 13.4463 37.6552 12.7503 37.4039 12.035C37.1332 12.7697 36.8722 13.485 36.6209 14.181C36.3696 14.877 36.1086 15.544 35.8379 16.182ZM69.5896 26.303C69.1256 26.767 68.4876 27.231 67.6756 27.695C66.8829 28.1397 65.9646 28.5167 64.9206 28.826C63.8766 29.1353 62.7649 29.29 61.5856 29.29C60.1162 29.29 58.7436 29.0483 57.4676 28.565C56.1916 28.0623 55.0702 27.3567 54.1036 26.448C53.1562 25.5393 52.4119 24.447 51.8706 23.171C51.3486 21.8757 51.0876 20.4353 51.0876 18.85C51.0876 17.3613 51.3679 15.9887 51.9286 14.732C52.4892 13.4753 53.2626 12.383 54.2486 11.455C55.2539 10.527 56.3946 9.81167 57.6706 9.309C58.9466 8.787 60.2999 8.526 61.7306 8.526C62.9292 8.526 64.0506 8.7 65.0946 9.048C66.1579 9.37667 67.0956 9.802 67.9076 10.324C68.7389 10.846 69.3962 11.397 69.8796 11.977L67.8786 14.355C67.0279 13.5623 66.0806 12.9147 65.0366 12.412C64.0119 11.89 62.8712 11.629 61.6146 11.629C60.3772 11.629 59.1979 11.919 58.0766 12.499C56.9552 13.079 56.0369 13.9103 55.3216 14.993C54.6256 16.0757 54.2776 17.3613 54.2776 18.85C54.2776 20.474 54.6352 21.8273 55.3506 22.91C56.0852 23.9927 57.0326 24.8143 58.1926 25.375C59.3719 25.9163 60.6382 26.187 61.9916 26.187C63.3642 26.187 64.5532 25.926 65.5586 25.404C66.5639 24.8627 67.3952 24.302 68.0526 23.722L69.5896 26.303ZM78.9219 29H75.7899V8.7H78.9219V19.082L83.0399 15.428L90.4929 8.7H94.8429L85.3599 17.023L94.7849 29H90.7539L83.0689 19.082L78.9219 22.736V29ZM115.931 29L113.843 24.07H103.983L101.866 29H98.6467L107.318 8.7H110.711L119.324 29H115.931ZM107.347 16.182L105.259 21.054H112.567L110.421 16.066C110.169 15.428 109.918 14.7803 109.667 14.123C109.415 13.4463 109.164 12.7503 108.913 12.035C108.642 12.7697 108.381 13.485 108.13 14.181C107.878 14.877 107.617 15.544 107.347 16.182ZM127.663 29V11.716H121.167V8.7H137.465V11.716H130.795V29H127.663ZM146.183 8.7V17.429H157.928V8.7H161.06V29H157.928V20.445H146.183V29H143.051V8.7H146.183ZM188.923 18.85C188.923 20.3193 188.652 21.692 188.111 22.968C187.589 24.2247 186.835 25.3267 185.849 26.274C184.882 27.2213 183.732 27.9657 182.398 28.507C181.083 29.029 179.633 29.29 178.048 29.29C176.462 29.29 175.003 29.029 173.669 28.507C172.335 27.9657 171.184 27.2213 170.218 26.274C169.251 25.3267 168.497 24.2247 167.956 22.968C167.434 21.692 167.173 20.3193 167.173 18.85C167.173 17.3807 167.434 16.0177 167.956 14.761C168.497 13.485 169.251 12.3733 170.218 11.426C171.184 10.4787 172.335 9.744 173.669 9.222C175.003 8.68067 176.462 8.41 178.048 8.41C179.633 8.41 181.083 8.68067 182.398 9.222C183.732 9.744 184.882 10.4787 185.849 11.426C186.835 12.3733 187.589 13.485 188.111 14.761C188.652 16.0177 188.923 17.3807 188.923 18.85ZM185.733 18.85C185.733 17.4387 185.404 16.182 184.747 15.08C184.089 13.9587 183.181 13.079 182.021 12.441C180.861 11.7837 179.536 11.455 178.048 11.455C176.52 11.455 175.177 11.7837 174.017 12.441C172.876 13.079 171.977 13.9587 171.32 15.08C170.682 16.182 170.363 17.4387 170.363 18.85C170.363 20.2613 170.682 21.5277 171.32 22.649C171.977 23.751 172.876 24.6307 174.017 25.288C175.177 25.926 176.52 26.245 178.048 26.245C179.536 26.245 180.861 25.926 182.021 25.288C183.181 24.6307 184.089 23.7413 184.747 22.62C185.404 21.4987 185.733 20.242 185.733 18.85ZM211.112 8.7H214.244V29H211.257L197.685 13.311C197.801 14.5097 197.917 15.718 198.033 16.936C198.149 18.1347 198.207 19.343 198.207 20.561V29H195.075V8.7H198.004L211.576 24.766C211.441 23.8187 211.334 22.8037 211.257 21.721C211.199 20.6383 211.16 19.5557 211.141 18.473C211.122 17.371 211.112 16.3367 211.112 15.37V8.7Z" fill="white"/>
</svg>
