<svg width="117" height="96" viewBox="0 0 117 96" fill="none" xmlns="http://www.w3.org/2000/svg">
<path d="M14.1672 63.1913V62.8094L13.7988 62.7089L0.848867 59.1763L15.1406 40.4947L58.3254 28.7143L101.51 40.4947L115.801 59.1763L102.852 62.7089L102.483 62.8094V63.1913V83.4361L58.3252 95.4818L14.1672 83.4361V63.1913ZM88.8351 42.8914L90.6034 42.409L88.8351 41.9266L58.457 33.6399L58.3254 33.604L58.1938 33.6399L27.8157 41.9266L26.0473 42.409L27.8157 42.8914L58.1938 51.1781L58.3254 51.214L58.457 51.1781L88.8351 42.8914ZM10.0364 56.0793L9.5847 56.6698L10.302 56.8654L44.8597 66.2922L45.1841 66.3807L45.3885 66.1136L53.5057 55.5026L53.9575 54.9121L53.2402 54.7164L18.6826 45.2895L18.3582 45.201L18.1539 45.4681L10.0364 56.0793ZM20.6344 64.5737L20.0028 64.4014V65.056V79.7565V80.1384L20.3712 80.2389L54.7761 89.6242L55.4077 89.7964V89.1418V63.4058V61.9293L54.5106 63.102L47.7302 71.965L20.6344 64.5737ZM61.2431 89.1416V89.7963L61.8747 89.624L96.2795 80.2387L96.648 80.1382V79.7563V65.0558V64.4012L96.0164 64.5735L68.9205 71.9649L62.1402 63.1018L61.2431 61.9291V63.4056V89.1416ZM71.2623 66.1138L71.4666 66.3808L71.791 66.2924L106.349 56.8656L107.066 56.67L106.614 56.0795L98.4968 45.4683L98.2925 45.2012L97.9681 45.2897L63.4106 54.7166L62.6933 54.9123L63.145 55.5028L71.2623 66.1138Z" fill="#3C9AE4" stroke="#1F0A57"/>
<path d="M55.4077 0.5H61.2431V18.2829H55.4077V0.5Z" fill="#3C9AE4" stroke="#1F0A57"/>
<path d="M23.5016 8.78994L28.5179 6.40653L39.3557 21.8541L34.3395 24.2375L23.5016 8.78994Z" fill="#3C9AE4" stroke="#1F0A57"/>
<path d="M77.2938 21.8558L88.1317 6.40841L93.1479 8.7918L82.3101 24.2392L77.2938 21.8558Z" fill="#3C9AE4" stroke="#1F0A57"/>
</svg>
