<svg width="94" height="96" viewBox="0 0 94 96" fill="none" xmlns="http://www.w3.org/2000/svg">
<path d="M20.7144 75.2644L20.3518 75.6994L20.8273 76.0071C24.5549 78.4195 27.0406 82.6795 27.0406 87.5294V95.498H0.501961V87.5294C0.501961 82.6795 2.98768 78.4195 6.7153 76.0071L7.19075 75.6994L6.8282 75.2644C5.46172 73.6246 4.63335 71.4993 4.63335 69.1765C4.63335 63.9929 8.74467 59.7962 13.7713 59.7962C18.7979 59.7962 22.9092 63.9929 22.9092 69.1765C22.9092 71.4995 22.0809 73.6246 20.7144 75.2644ZM22.0341 90.8549H22.536V90.3529V87.5294C22.536 82.5931 18.6163 78.5569 13.7713 78.5569C8.9263 78.5569 5.00656 82.5931 5.00656 87.5294V90.3529V90.8549H5.50852H22.0341ZM13.7713 64.4393C11.2042 64.4393 9.13794 66.5759 9.13794 69.1765C9.13794 71.7771 11.2042 73.9138 13.7713 73.9138C16.3384 73.9138 18.4046 71.7771 18.4046 69.1765C18.4046 66.5759 16.3384 64.4393 13.7713 64.4393Z" fill="#3C9AE4" stroke="#1F0A57" stroke-width="1.00392"/>
<path d="M53.766 75.2644L53.4034 75.6994L53.8789 76.0071C57.6065 78.4195 60.0922 82.6793 60.0922 87.5294V95.498H33.5535V87.5294C33.5535 82.6795 36.0393 78.4195 39.7669 76.0071L40.2423 75.6994L39.8798 75.2644C38.5133 73.6246 37.6849 71.4993 37.6849 69.1765C37.6849 63.9929 41.7962 59.7962 46.8229 59.7962C51.8493 59.7962 55.9608 63.9929 55.9608 69.1765C55.9608 71.4996 55.1326 73.6246 53.766 75.2644ZM55.0856 90.8549H55.5876V90.3529V87.5294C55.5876 82.5931 51.668 78.5569 46.8229 78.5569C41.9779 78.5569 38.0581 82.5931 38.0581 87.5294V90.3529V90.8549H38.5601H55.0856ZM46.8229 64.4393C44.2558 64.4393 42.1895 66.5759 42.1895 69.1765C42.1895 71.7771 44.2558 73.9138 46.8229 73.9138C49.3897 73.9138 51.4562 71.7772 51.4562 69.1765C51.4562 66.5759 49.3897 64.4393 46.8229 64.4393Z" fill="#3C9AE4" stroke="#1F0A57" stroke-width="1.00392"/>
<path d="M86.8166 75.2644L86.454 75.6994L86.9295 76.0071C90.6571 78.4195 93.1428 82.6793 93.1428 87.5294V95.498H66.6041V87.5294C66.6041 82.6793 69.0898 78.4195 72.8175 76.0071L73.2929 75.6994L72.9304 75.2644C71.5637 73.6246 70.7355 71.4994 70.7355 69.1765C70.7355 63.9929 74.847 59.7962 79.8735 59.7962C84.8999 59.7962 89.0114 63.9929 89.0114 69.1765C89.0114 71.4996 88.1832 73.6246 86.8166 75.2644ZM88.1362 90.8549H88.6382V90.3529V87.5294C88.6382 82.5931 84.7186 78.5569 79.8735 78.5569C75.0283 78.5569 71.1087 82.5931 71.1087 87.5294V90.3529V90.8549H71.6107H88.1362ZM79.8735 64.4393C77.3066 64.4393 75.2401 66.5759 75.2401 69.1765C75.2401 71.7772 77.3066 73.9138 79.8735 73.9138C82.4403 73.9138 84.5068 71.7772 84.5068 69.1765C84.5068 66.5759 82.4403 64.4393 79.8735 64.4393Z" fill="#3C9AE4" stroke="#1F0A57" stroke-width="1.00392"/>
<path d="M17.1616 44.826L17.0138 44.6745H16.8023H0.501961V0.501961H93.1428V44.6745H75.5058H75.2942L75.1465 44.826L65.4338 54.7829L55.7212 44.826L55.5735 44.6745H55.3619H36.9462H36.7346L36.5869 44.826L26.8742 54.7829L17.1616 44.826ZM88.1363 40.0314H88.6382V39.5294V5.64706V5.1451H88.1363H5.50852H5.00656V5.64706V39.5294V40.0314H5.50852H18.8725L26.5151 47.8662L26.8744 48.2345L27.2337 47.8662L34.8761 40.0314H57.4321L65.0745 47.8662L65.4338 48.2345L65.7932 47.8662L73.4358 40.0314H88.1363Z" fill="#3C9AE4" stroke="#1F0A57" stroke-width="1.00392"/>
<path d="M11.5188 14.6194H82.1256V19.2626H11.5188V14.6194Z" fill="#3C9AE4" stroke="#1F0A57" stroke-width="1.00392"/>
<path d="M11.5188 25.9136H82.1256V30.5568H11.5188V25.9136Z" fill="#3C9AE4" stroke="#1F0A57" stroke-width="1.00392"/>
</svg>
