<svg width="114" height="96" viewBox="0 0 114 96" fill="none" xmlns="http://www.w3.org/2000/svg">
<path d="M107.827 6.85714V6.35082H107.32H6.67969H6.17337V6.85714V27.4286V27.9349H6.67969H107.32H107.827V27.4286V6.85714ZM6.17337 89.1429V89.6492H6.67969H107.32H107.827V89.1429V34.2857V33.7794H107.32H6.67969H6.17337V34.2857V89.1429ZM0.506322 95.4937V0.506322H113.494V95.4937H0.506322Z" fill="#3C9AE4" stroke="#1F0A57" stroke-width="1.01264"/>
<path d="M13.8661 14.2207H19.5331V20.0651H13.8661V14.2207Z" fill="#3C9AE4" stroke="#1F0A57" stroke-width="1.01264"/>
<path d="M27.2247 14.2207H32.8917V20.0651H27.2247V14.2207Z" fill="#3C9AE4" stroke="#1F0A57" stroke-width="1.01264"/>
<path d="M40.5844 14.2207H46.2515V20.0651H40.5844V14.2207Z" fill="#3C9AE4" stroke="#1F0A57" stroke-width="1.01264"/>
<path d="M25.4736 61.4812L25.1295 61.8345L25.4737 62.1878L36.9378 73.9563L32.9215 78.0794L17.0968 61.8345L32.9215 45.5894L36.9378 49.7125L25.4736 61.4812Z" fill="#3C9AE4" stroke="#1F0A57" stroke-width="1.01264"/>
<path d="M88.5106 62.1878L88.8548 61.8345L88.5106 61.4812L77.0462 49.7124L81.0626 45.5894L96.8873 61.8345L81.0626 78.0794L77.0462 73.9563L88.5106 62.1878Z" fill="#3C9AE4" stroke="#1F0A57" stroke-width="1.01264"/>
<path d="M46.9556 72.6558L62.1913 46.548L67.06 49.5421L51.8243 75.6499L46.9556 72.6558Z" fill="#3C9AE4" stroke="#1F0A57" stroke-width="1.01283"/>
</svg>
