<svg width="96" height="96" viewBox="0 0 96 96" fill="none" xmlns="http://www.w3.org/2000/svg">
<g clip-path="url(#clip0)">
<path d="M58.0934 3.0721H95.4999V77.0884H78.8453H78.3452V77.5885V86.908C78.3452 90.2269 75.6442 92.9278 72.3252 92.9278H68.8615C65.5428 92.9278 62.8417 90.2268 62.8417 86.908V77.5885V77.0884H62.3417H58.0932C53.9707 77.0884 50.5873 80.3103 50.3287 84.3687H45.6711C45.4125 80.3104 42.0293 77.0884 37.9066 77.0884H0.500081V3.0721H37.9068C41.8293 3.0721 45.3328 4.90149 47.6092 7.75516L48.0001 8.24527L48.391 7.75514C50.6672 4.90149 54.1707 3.0721 58.0934 3.0721ZM90.8742 8.19793V7.69785H90.3741H58.0934C53.8029 7.69785 50.3128 11.1878 50.313 15.4782V62.9653V63.9145L51.0958 63.3777C53.0893 62.0109 55.4989 61.2103 58.0934 61.2103H62.3419H62.8419V60.7102V40.6062L68.1855 33.2357L68.2807 33.1044V32.9422V29.2296H72.9064V32.9422V33.1044L73.0017 33.2357L78.3452 40.6062V60.7102V61.2103H78.8453H90.3741H90.8742V60.7102V8.19793ZM70.9984 38.3535L70.5936 37.7951L70.1887 38.3535L67.7707 41.6886L67.1953 42.4822H68.1756H73.0116H73.9918L73.4164 41.6886L70.9984 38.3535ZM67.9678 47.1079H67.4677V47.608V77.9879V78.488H67.9678H73.2194H73.7195V77.9879V47.608V47.1079H73.2194H67.9678ZM44.9041 63.3777L45.687 63.9146V62.9653V15.4782C45.687 11.1878 42.1973 7.69785 37.9066 7.69785H5.62591H5.12583V8.19793V60.7102V61.2103H5.62591H37.9066C40.5011 61.2103 42.9107 62.0107 44.9041 63.3777ZM5.12583 71.9628V72.4629H5.62591H37.9066C40.5013 72.4629 42.9107 73.2633 44.9041 74.6302L45.687 75.1671V74.2178V73.6164C45.687 69.326 42.1973 65.836 37.9066 65.836H5.62591H5.12583V66.3361V71.9628ZM50.313 74.2178V75.1671L51.0958 74.6303C53.0893 73.2635 55.4989 72.4629 58.0934 72.4629H62.3419H62.8419V71.9628V66.3361V65.836H62.3419H58.0934C53.8029 65.836 50.313 69.3258 50.313 73.6164V74.2178ZM67.9676 83.1136H67.4675V83.6137V86.908C67.4675 87.6773 68.0926 88.302 68.8615 88.302H72.3252C73.0942 88.302 73.7195 87.6775 73.7193 86.908C73.7193 86.9079 73.7193 86.9079 73.7193 86.9078V83.6137V83.1136H73.2192H67.9676ZM78.3452 71.9628V72.4629H78.8453H90.3741H90.8742V71.9628V66.3361V65.836H90.3741H78.8453H78.3452V66.3361V71.9628Z" fill="#3C9AE4" stroke="#1F0A57" stroke-width="1.00016"/>
<path d="M12.0257 15.2623H38.7877V19.888H12.0257V15.2623Z" fill="#3C9AE4" stroke="#1F0A57" stroke-width="1.00016"/>
<path d="M12.0257 49.0199H29.4106V53.6456H12.0257V49.0199Z" fill="#3C9AE4" stroke="#1F0A57" stroke-width="1.00016"/>
<path d="M12.0257 37.7674H38.7877V42.3932H12.0257V37.7674Z" fill="#3C9AE4" stroke="#1F0A57" stroke-width="1.00016"/>
<path d="M32.286 26.515H38.7874V31.1407H32.286V26.515Z" fill="#3C9AE4" stroke="#1F0A57" stroke-width="1.00016"/>
<path d="M12.0257 26.515H25.6596V31.1407H12.0257V26.515Z" fill="#3C9AE4" stroke="#1F0A57" stroke-width="1.00016"/>
</g>
<defs>
<clipPath id="clip0">
<rect width="96" height="96" fill="white"/>
</clipPath>
</defs>
</svg>
