<svg width="96" height="96" viewBox="0 0 96 96" fill="none" xmlns="http://www.w3.org/2000/svg">
<g clip-path="url(#clip0)">
<path d="M39.418 23.6149L39.4181 23.6149L39.424 23.6088C53.5956 8.94625 73.1901 0.530411 93.1823 0.511974L95.4839 0.50983C95.4827 0.747589 95.4855 1.03843 95.4886 1.37964C95.5284 5.65246 95.6415 17.8231 89.1309 32.5475C85.161 41.5266 79.3684 49.8328 72.3816 56.5672L72.3816 56.5671L72.3751 56.5736L67.3034 61.6453L66.9498 61.9989L67.3034 62.3525L72.5024 67.5511L68.1096 83.0474L55.873 95.2835L44.5486 83.9591L44.297 83.7075L43.9769 83.8627L33.5214 88.9307L30.3301 85.7393L29.9765 85.3857L29.6229 85.7393L21.5553 93.8069L18.2845 90.5361L26.3521 82.4685L26.7057 82.1149L26.3521 81.7613L22.2796 77.6887L21.926 77.3351L21.5724 77.6887L4.09296 95.168L0.822167 91.8972L18.3016 74.4181L18.6552 74.0646L18.3016 73.7109L14.2291 69.638L13.8755 69.2844L13.5219 69.638L5.45459 77.7053L2.18379 74.4345L10.2511 66.367L10.6047 66.0134L10.2511 65.6598L7.05985 62.4686L12.1278 52.0135L12.2831 51.6933L12.0314 51.4417L11.8155 51.2258L11.8156 51.2257L11.4574 50.8675L0.707205 40.1169L12.9447 27.8796L28.4542 23.5019L33.639 28.6867L33.9926 29.0403L34.3462 28.6867L39.418 23.6149ZM15.4878 31.9681L15.3622 32.0035L15.27 32.0957L7.60222 39.7633L7.24862 40.1169L7.6022 40.4705L14.728 47.5969L15.0816 47.9505L15.4353 47.5969L30.3678 32.6646L30.7214 32.3109L30.3678 31.9573L27.3079 28.8976L27.1006 28.6904L26.8185 28.77L15.4878 31.9681ZM34.2136 83.0813L34.4651 83.3329L34.7853 83.1777L40.2024 80.5519L40.8349 80.2454L40.3379 79.7483L16.2422 55.6528L15.7452 55.1559L15.4386 55.7883L12.8128 61.2048L12.6576 61.525L12.9092 61.7766L34.2136 83.0813ZM67.2314 69.1847L67.3115 68.9023L67.1039 68.6947L64.0324 65.6238L63.6788 65.2703L63.3252 65.6238L48.3934 80.5556L48.0398 80.9093L48.3934 81.2629L55.5194 88.3887L55.873 88.7423L56.2266 88.3887L63.8957 80.72L63.9877 80.628L64.0232 80.5027L67.2314 69.1847ZM37.7136 31.861L37.7134 31.8612L37.7099 31.8646L37.6937 31.8808L37.6639 31.9106L37.6305 31.944L37.6201 31.9544L37.6176 31.957L37.6175 31.957L37.6172 31.9573L37.617 31.9575C35.7879 33.7867 20.602 48.9724 18.7064 50.8677L18.3528 51.2213L18.7064 51.5749L44.4158 77.2839L44.7694 77.6375L45.123 77.2839L63.6774 58.7293L63.678 58.7298L64.0328 58.375L69.1537 53.2541C69.1548 53.253 69.1559 53.2519 69.1571 53.2508C82.2281 40.6595 90.0225 23.4797 90.8063 5.72483L90.8304 5.17906L90.2846 5.20319C72.5422 5.98768 55.3542 13.7765 42.7375 26.8365L37.7252 31.8493L37.7181 31.8565L37.7151 31.8595L37.7145 31.86L37.7136 31.861Z" fill="#3C9AE4" stroke="#1F0A57" stroke-width="1.00014"/>
<path d="M68.9154 45.2112L68.5618 44.8576C73.372 40.0475 73.3752 32.2241 68.5708 27.4197C66.2467 25.0956 63.1549 23.8162 59.8601 23.8162C53.0604 23.8162 47.5348 29.2946 47.5364 36.1344L68.9154 45.2112ZM68.9154 45.2112C63.8884 50.2384 55.7411 50.1542 50.7887 45.2022L51.1423 44.8486M68.9154 45.2112L47.5364 36.1344C47.5373 39.4307 48.8174 42.5237 51.1423 44.8486C51.1423 44.8486 51.1423 44.8486 51.1423 44.8486M68.9154 45.2112L68.5618 44.8576C63.7325 49.6872 55.9018 49.6077 51.1423 44.8486M68.9154 45.2112L51.1423 44.8486M65.291 41.5868L65.291 41.5868C68.2971 38.5805 68.3024 33.6931 65.3001 30.6906C63.8504 29.2407 61.9166 28.4419 59.8601 28.4419C57.6704 28.4419 55.7437 29.8939 54.4003 31.4944C53.7202 32.3047 53.1669 33.1786 52.7817 33.9812C52.4035 34.7689 52.1619 35.5399 52.162 36.133C52.1632 40.3678 55.5586 43.8212 59.8622 43.8212C61.9194 43.8212 63.8494 43.0283 65.291 41.5868Z" fill="#3C9AE4" stroke="#1F0A57" stroke-width="1.00014"/>
</g>
<defs>
<clipPath id="clip0">
<rect width="96" height="96" fill="white"/>
</clipPath>
</defs>
</svg>
